<svg width="85" height="85" viewBox="0 0 85 85" fill="none" xmlns="http://www.w3.org/2000/svg">
<rect x="0.5" y="0.5" width="84" height="84" rx="9.5" fill="#FFF3C2" stroke="#EAECF0"/>
<path d="M42.5318 12.5781C44.0706 12.5781 45.4755 13.4475 46.1622 14.8241L58.7748 40.0493L72.0615 66.6321C72.3605 67.2296 72.5073 67.8917 72.489 68.5596C72.4707 69.2274 72.2878 69.8805 71.9566 70.4607C71.6254 71.0409 71.156 71.5304 70.5902 71.8857C70.0243 72.241 69.3796 72.4511 68.713 72.4974L68.4327 72.5084L42.5334 67.3582L26.292 40.0461L38.9046 14.8225C39.241 14.1481 39.7588 13.5808 40.3998 13.1843C41.0408 12.7878 41.7781 12.5779 42.5318 12.5781Z" fill="#FFBB00"/>
<path d="M42.531 12.5781C44.0698 12.5781 45.4747 13.4475 46.1598 14.8241L58.7724 40.0493L42.531 67.3566L16.6317 72.5069C15.9397 72.5068 15.2592 72.3298 14.6548 71.9927C14.0504 71.6556 13.5423 71.1695 13.1786 70.5807C12.815 69.9918 12.608 69.3198 12.5773 68.6284C12.5465 67.9371 12.693 67.2493 13.0029 66.6305L26.2928 40.0493L38.9054 14.8241C39.2414 14.1498 39.7586 13.5825 40.399 13.1858C41.0394 12.7891 41.7777 12.5787 42.531 12.5781Z" fill="url(#paint0_linear_43_3729)"/>
<path d="M42.5318 12.5781C44.0706 12.5781 45.4755 13.4475 46.1622 14.8241L58.7748 40.0493L42.5318 67.3566L26.292 40.0461L38.9046 14.8225C39.219 14.1912 39.6927 13.6529 40.2788 13.2606C40.8649 12.8684 41.5433 12.6359 42.2467 12.586L42.5318 12.5781Z" fill="url(#paint1_linear_43_3729)"/>
<defs>
<linearGradient id="paint0_linear_43_3729" x1="35.6483" y1="39.7642" x2="35.5128" y2="72.5069" gradientUnits="userSpaceOnUse">
<stop stop-color="#FFD748"/>
<stop offset="0.536" stop-color="#FFCD48"/>
<stop offset="1" stop-color="#FFCB48"/>
</linearGradient>
<linearGradient id="paint1_linear_43_3729" x1="42.5365" y1="65.4367" x2="42.5365" y2="35.1605" gradientUnits="userSpaceOnUse">
<stop stop-color="#FFAD00"/>
<stop offset="1" stop-color="#FF7600"/>
</linearGradient>
</defs>
</svg>
