<svg width="68" height="68" viewBox="0 0 68 68" fill="none" xmlns="http://www.w3.org/2000/svg">
<path fill-rule="evenodd" clip-rule="evenodd" d="M51.7968 0C61.625 0 68 6.375 68 16.2032V51.7968C68 61.625 61.625 68 51.7968 68H16.2032C6.375 68 0 61.625 0 51.7968V16.2032C0 6.375 6.375 0 16.2032 0H51.7968Z" fill="#F02846"/>
<path d="M56.1 30.045V49.8888C56.1 54.4252 52.1391 57.8171 47.6 57.8171H20.4024C15.8644 57.8171 11.9 54.4241 11.9 49.8888V30.045C11.9 25.5086 15.8633 22.1001 20.4024 22.1001H37.9667L19.6951 11.6493C18.2677 10.8417 17.8821 8.94942 18.5744 7.59985C19.2667 6.25027 21.2432 5.44489 22.6667 6.25027L51.4674 22.7944C54.0999 24.2511 56.1 26.9477 56.1 30.045Z" fill="white"/>
<path fill-rule="evenodd" clip-rule="evenodd" d="M20.6833 27.7666C18.962 27.7666 17.5667 29.162 17.5667 30.8833V49.0166C17.5667 50.7379 18.962 52.1333 20.6833 52.1333H47.3167C49.038 52.1333 50.4333 50.7379 50.4333 49.0166V30.8833C50.4333 29.162 49.038 27.7666 47.3167 27.7666H20.6833ZM28.9 39.95C28.9 41.6713 27.5046 43.0666 25.7833 43.0666C24.062 43.0666 22.6667 41.6713 22.6667 39.95C22.6667 38.2287 24.062 36.8333 25.7833 36.8333C27.5046 36.8333 28.9 38.2287 28.9 39.95ZM34.2833 43.0666C36.0046 43.0666 37.4 41.6713 37.4 39.95C37.4 38.2287 36.0046 36.8333 34.2833 36.8333C32.562 36.8333 31.1667 38.2287 31.1667 39.95C31.1667 41.6713 32.562 43.0666 34.2833 43.0666ZM45.9 39.95C45.9 41.6713 44.5046 43.0666 42.7833 43.0666C41.062 43.0666 39.6667 41.6713 39.6667 39.95C39.6667 38.2287 41.062 36.8333 42.7833 36.8333C44.5046 36.8333 45.9 38.2287 45.9 39.95Z" fill="#F02846"/>
</svg>
