<svg width="18" height="18" viewBox="0 0 18 18" fill="none" xmlns="http://www.w3.org/2000/svg">
<g clip-path="url(#clip0_761_5562)">
<path d="M5.20243 7.29525C5.05451 6.91896 5.33189 6.51184 5.73622 6.51184H12.8385C12.8385 6.65427 12.8119 6.79669 12.7589 6.93156L11.1805 10.9463C11.0079 11.3851 10.5845 11.6737 10.113 11.6737H6.88115C6.88115 11.6025 6.86788 11.5312 6.84137 11.4638L5.20243 7.29525Z" fill="url(#paint0_linear_761_5562)"/>
<path d="M0.0403249 2.13337C-0.107612 1.7571 0.169779 1.34998 0.574088 1.34998H6.61477C6.6231 1.34998 6.63138 1.35015 6.63961 1.3505C6.65122 1.35015 6.66288 1.34998 6.67458 1.34998H10.1127C10.5842 1.34998 11.0077 1.63852 11.1802 2.07734L12.7586 6.09208C12.8117 6.22699 12.8382 6.36937 12.8382 6.51179H5.73592C5.3316 6.51179 5.05422 6.91891 5.20213 7.2952L6.84108 11.4638C6.86758 11.5312 6.88086 11.6024 6.88086 11.6736H0.574088C0.169779 11.6736 -0.107611 11.2665 0.0403252 10.8902L1.67925 6.72167C1.73228 6.58676 1.73228 6.43682 1.67925 6.30196L0.0403249 2.13337Z" fill="url(#paint1_linear_761_5562)"/>
<path fill-rule="evenodd" clip-rule="evenodd" d="M6.88115 11.6737C6.88115 11.7449 6.86788 11.8161 6.84137 11.8835L5.20243 16.0521C5.05451 16.4284 5.33189 16.8355 5.73622 16.8355H15.2748C15.7463 16.8355 16.1698 16.5469 16.3423 16.1081L17.9207 12.0934C18.0268 11.8236 18.0268 11.5237 17.9207 11.2539L16.3423 7.23922C16.1698 6.80038 15.7463 6.51184 15.2748 6.51184H12.8385C12.8385 6.65427 12.8119 6.79669 12.7589 6.93156L11.1805 10.9463C11.0079 11.3851 10.5845 11.6737 10.113 11.6737H6.88115Z" fill="#9966FF"/>
</g>
<defs>
<linearGradient id="paint0_linear_761_5562" x1="6.32828" y1="11.1001" x2="13.2107" y2="5.65153" gradientUnits="userSpaceOnUse">
<stop stop-color="#0048E5"/>
<stop offset="0.63979" stop-color="#625AF5"/>
<stop offset="1" stop-color="#8A62FC"/>
</linearGradient>
<linearGradient id="paint1_linear_761_5562" x1="6.41907" y1="2.02793" x2="6.32799" y2="11.1001" gradientUnits="userSpaceOnUse">
<stop stop-color="#11EFE3"/>
<stop offset="0.33" stop-color="#15E8E2"/>
<stop offset="0.74" stop-color="#1FD3E0"/>
<stop offset="1" stop-color="#21CFE0"/>
</linearGradient>
<clipPath id="clip0_761_5562">
<rect width="18" height="18" fill="white"/>
</clipPath>
</defs>
</svg>
