<svg width="85" height="85" viewBox="0 0 85 85" fill="none" xmlns="http://www.w3.org/2000/svg">
<rect x="0.5" y="0.5" width="84" height="84" rx="9.5" fill="#EDF7FF" stroke="#EAECF0"/>
<g clip-path="url(#clip0_43_3793)">
<rect width="58" height="58" transform="translate(14 14)" fill="#EDF7FF"/>
<path d="M32.0754 14.0146C22.1429 14.438 14.2418 22.4768 14.0055 32.3977C13.7677 42.3172 21.2758 50.7228 31.1764 51.6189C31.7158 51.6639 32.2552 51.7001 32.8091 51.7001H48.1037C50.0902 51.7001 51.6997 50.0921 51.6997 48.1099V32.8646C51.7014 30.3247 51.1893 27.8108 50.1943 25.4739C49.1993 23.1371 47.7419 21.0256 45.9098 19.2665C44.0759 17.5057 41.9055 16.1331 39.5286 15.2307C37.1518 14.3283 34.6173 13.9147 32.0768 14.0146H32.0754Z" fill="url(#paint0_linear_43_3793)"/>
<path d="M53.9241 71.9824C63.8566 71.559 71.7577 63.5202 71.994 53.5993C72.2318 43.6798 64.7237 35.2742 54.8231 34.3781C54.2802 34.3282 53.7355 34.3012 53.1904 34.2969H37.8958C37.424 34.2965 36.9566 34.3891 36.5206 34.5693C36.0845 34.7495 35.6882 35.0138 35.3543 35.3472C35.0203 35.6806 34.7553 36.0765 34.5744 36.5123C34.3935 36.9481 34.3002 37.4152 34.2998 37.8871V53.1324C34.2981 55.6722 34.8102 58.1862 35.8052 60.5231C36.8002 62.8599 38.2576 64.9714 40.0897 66.7305C41.9239 68.4909 44.0943 69.8633 46.4711 70.7657C48.8479 71.6681 51.3837 72.0819 53.9241 71.9824Z" fill="#0073E6"/>
<path d="M51.6998 34.2969V48.1067C51.6994 48.5785 51.6061 49.0457 51.4252 49.4815C51.2443 49.9173 50.9793 50.3132 50.6454 50.6465C50.3114 50.9799 49.9151 51.2443 49.479 51.4245C49.043 51.6047 48.5757 51.6973 48.1038 51.6969H34.2998V37.8871C34.3008 36.9752 34.6485 36.0979 35.2723 35.4328C35.8962 34.7678 36.7495 34.3648 37.6595 34.3056L37.8958 34.2969H51.6998Z" fill="url(#paint1_linear_43_3793)"/>
</g>
<defs>
<linearGradient id="paint0_linear_43_3793" x1="32.8497" y1="16.4753" x2="32.8497" y2="36.1184" gradientUnits="userSpaceOnUse">
<stop stop-color="#11EFE3"/>
<stop offset="0.33" stop-color="#15E8E2"/>
<stop offset="0.74" stop-color="#1FD3E0"/>
<stop offset="1" stop-color="#21CFE0"/>
</linearGradient>
<linearGradient id="paint1_linear_43_3793" x1="42.9998" y1="36.7967" x2="42.9998" y2="53.4963" gradientUnits="userSpaceOnUse">
<stop stop-color="#00299C"/>
<stop offset="1" stop-color="#0073E6"/>
</linearGradient>
<clipPath id="clip0_43_3793">
<rect width="58" height="58" fill="white" transform="translate(14 14)"/>
</clipPath>
</defs>
</svg>
