<svg width="13" height="16" viewBox="0 0 13 16" fill="none" xmlns="http://www.w3.org/2000/svg">
<path d="M9.95707 0.03125C10.5508 0.03125 10.9883 0.59375 10.8321 1.15625L9.14457 7H11.8321C12.4258 7 12.9258 7.5 12.9258 8.09375C12.9258 8.4375 12.7696 8.71875 12.5196 8.9375L4.42582 15.8125C4.26957 15.9375 4.08207 16 3.86332 16C3.26957 16 2.83207 15.4375 2.98832 14.875L4.67582 9H1.95707C1.39457 9 0.92582 8.53125 0.92582 7.96875C0.92582 7.65625 1.05082 7.34375 1.26957 7.15625L9.39457 0.21875C9.55082 0.09375 9.73832 0 9.95707 0V0.03125ZM8.83207 2.65625L3.17582 7.5H5.67582C5.89457 7.5 6.11332 7.625 6.26957 7.8125C6.39457 8 6.45707 8.25 6.39457 8.46875L4.98832 13.375L10.7071 8.5H8.17582C7.92582 8.5 7.70707 8.40625 7.55082 8.21875C7.42582 8.03125 7.36332 7.78125 7.42582 7.5625L8.83207 2.65625Z" fill="white"/>
</svg>
