<svg width="112" height="16" viewBox="0 0 112 16" fill="none" xmlns="http://www.w3.org/2000/svg">
<path fill-rule="evenodd" clip-rule="evenodd" d="M8.21967 1.21967C8.51256 0.926777 8.98744 0.926777 9.28033 1.21967C9.57322 1.51256 9.57322 1.98744 9.28033 2.28033L4.06066 7.5H14.25C14.6642 7.5 15 7.83579 15 8.25C15 8.66421 14.6642 9 14.25 9H4.06066L9.28033 14.2197C9.57322 14.5126 9.57322 14.9874 9.28033 15.2803C8.98744 15.5732 8.51256 15.5732 8.21967 15.2803L1.71967 8.78033C1.42678 8.48744 1.42678 8.01256 1.71967 7.71967L8.21967 1.21967Z" fill="#5F6368"/>
<path fill-rule="evenodd" clip-rule="evenodd" d="M39.7803 1.21967C39.4874 0.926777 39.0126 0.926777 38.7197 1.21967C38.4268 1.51256 38.4268 1.98744 38.7197 2.28033L43.9393 7.5H33.75C33.3358 7.5 33 7.83579 33 8.25C33 8.66421 33.3358 9 33.75 9H43.9393L38.7197 14.2197C38.4268 14.5126 38.4268 14.9874 38.7197 15.2803C39.0126 15.5732 39.4874 15.5732 39.7803 15.2803L46.2803 8.78033C46.5732 8.48744 46.5732 8.01256 46.2803 7.71967L39.7803 1.21967Z" fill="#BABCBE"/>
<path fill-rule="evenodd" clip-rule="evenodd" d="M77.3356 2.64997C77.3356 2.29098 77.0446 1.99997 76.6856 1.99997C76.3266 1.99997 76.0356 2.29098 76.0356 2.64997V4.86242C75.4662 4.14738 74.7425 3.56191 73.9115 3.15393C72.6498 2.53449 71.2155 2.36078 69.8424 2.66113C68.4693 2.96148 67.2385 3.71816 66.3507 4.80779C65.4629 5.89741 64.9704 7.2557 64.9536 8.66114C64.9368 10.0666 65.3966 11.4362 66.2581 12.5468C67.1196 13.6574 68.332 14.4433 69.6975 14.7764C71.063 15.1095 72.5011 14.9701 73.7772 14.381C75.0533 13.792 76.0922 12.7879 76.7245 11.5326C76.886 11.212 76.757 10.8212 76.4364 10.6597C76.1158 10.4982 75.7249 10.6272 75.5635 10.9478C75.0634 11.9407 74.2417 12.7348 73.2323 13.2007C72.223 13.6667 71.0856 13.7769 70.0056 13.5134C68.9256 13.2499 67.9667 12.6283 67.2853 11.75C66.6039 10.8716 66.2402 9.78829 66.2535 8.67669C66.2668 7.56508 66.6563 6.49078 67.3585 5.62896C68.0607 4.76714 69.0342 4.16865 70.1202 3.9311C71.2062 3.69355 72.3407 3.83094 73.3386 4.32087C74.1818 4.73485 74.8854 5.3799 75.3706 6.17598H72.9736C72.6146 6.17598 72.3236 6.46699 72.3236 6.82598C72.3236 7.18496 72.6146 7.47598 72.9736 7.47598H76.6856C77.0446 7.47598 77.3356 7.18496 77.3356 6.82598V2.64997Z" fill="#5F6368"/>
<path fill-rule="evenodd" clip-rule="evenodd" d="M104.888 1.93684C104.634 1.683 104.222 1.683 103.968 1.93684L97.4365 8.46873C97.1826 8.72257 97.1826 9.13413 97.4365 9.38797C97.6903 9.64181 98.1019 9.64181 98.3557 9.38797L99.4235 8.32022V14.5893C99.4235 14.9483 99.7145 15.2393 100.073 15.2393H108.783C109.142 15.2393 109.433 14.9483 109.433 14.5893V8.32036L110.5 9.38797C110.754 9.64181 111.166 9.64181 111.419 9.38797C111.673 9.13413 111.673 8.72257 111.419 8.46873L109.247 6.29633C109.244 6.29306 109.241 6.28983 109.237 6.28663L104.888 1.93684ZM108.133 7.02036L104.428 3.3157L100.723 7.02022V13.9393H108.133V7.02036Z" fill="#5F6368"/>
</svg>
