<svg width="708" height="324" viewBox="0 0 708 324" fill="none" xmlns="http://www.w3.org/2000/svg">
<path d="M0 5C0 2.23858 2.23858 0 5 0H1435C1437.76 0 1440 2.23858 1440 5V41H0V5Z" fill="#DEE1E6"/>
<circle cx="19" cy="20" r="5.75" fill="#FF5E5D" stroke="#E14942" stroke-width="0.5"/>
<circle cx="39" cy="20" r="5.75" fill="#FFBC4F" stroke="#E1A325" stroke-width="0.5"/>
<circle cx="59" cy="20" r="5.75" fill="#22CB58" stroke="#3EAF3F" stroke-width="0.5"/>
<rect width="1440" height="38" transform="translate(0 41)" fill="white"/>
<path fill-rule="evenodd" clip-rule="evenodd" d="M32.2197 53.2197C32.5126 52.9268 32.9874 52.9268 33.2803 53.2197C33.5732 53.5126 33.5732 53.9874 33.2803 54.2803L28.0607 59.5H38.25C38.6642 59.5 39 59.8358 39 60.25C39 60.6642 38.6642 61 38.25 61H28.0607L33.2803 66.2197C33.5732 66.5126 33.5732 66.9874 33.2803 67.2803C32.9874 67.5732 32.5126 67.5732 32.2197 67.2803L25.7197 60.7803C25.4268 60.4874 25.4268 60.0126 25.7197 59.7197L32.2197 53.2197Z" fill="#5F6368"/>
<path fill-rule="evenodd" clip-rule="evenodd" d="M63.7803 53.2197C63.4874 52.9268 63.0126 52.9268 62.7197 53.2197C62.4268 53.5126 62.4268 53.9874 62.7197 54.2803L67.9393 59.5H57.75C57.3358 59.5 57 59.8358 57 60.25C57 60.6642 57.3358 61 57.75 61H67.9393L62.7197 66.2197C62.4268 66.5126 62.4268 66.9874 62.7197 67.2803C63.0126 67.5732 63.4874 67.5732 63.7803 67.2803L70.2803 60.7803C70.5732 60.4874 70.5732 60.0126 70.2803 59.7197L63.7803 53.2197Z" fill="#BABCBE"/>
<path fill-rule="evenodd" clip-rule="evenodd" d="M101.336 54.65C101.336 54.291 101.045 54 100.686 54C100.327 54 100.036 54.291 100.036 54.65V56.8625C99.4662 56.1474 98.7425 55.5619 97.9115 55.154C96.6498 54.5345 95.2155 54.3608 93.8424 54.6612C92.4693 54.9615 91.2385 55.7182 90.3507 56.8078C89.4629 57.8974 88.9704 59.2557 88.9536 60.6612C88.9368 62.0666 89.3966 63.4363 90.2581 64.5468C91.1196 65.6574 92.332 66.4433 93.6975 66.7764C95.063 67.1095 96.5011 66.9702 97.7772 66.3811C99.0533 65.792 100.092 64.7879 100.725 63.5326C100.886 63.212 100.757 62.8212 100.436 62.6597C100.116 62.4982 99.7249 62.6272 99.5635 62.9478C99.0634 63.9407 98.2417 64.7348 97.2323 65.2008C96.223 65.6667 95.0856 65.7769 94.0056 65.5134C92.9256 65.25 91.9667 64.6284 91.2853 63.75C90.6039 62.8716 90.2402 61.7883 90.2535 60.6767C90.2668 59.5651 90.6563 58.4908 91.3585 57.629C92.0607 56.7672 93.0342 56.1687 94.1202 55.9311C95.2062 55.6936 96.3407 55.831 97.3386 56.3209C98.1818 56.7349 98.8854 57.3799 99.3706 58.176H96.9736C96.6146 58.176 96.3236 58.467 96.3236 58.826C96.3236 59.185 96.6146 59.476 96.9736 59.476H100.686C101.045 59.476 101.336 59.185 101.336 58.826V54.65Z" fill="#5F6368"/>
<path fill-rule="evenodd" clip-rule="evenodd" d="M128.888 53.9404C128.634 53.6865 128.222 53.6865 127.968 53.9404L121.436 60.4723C121.183 60.7261 121.183 61.1377 121.436 61.3915C121.69 61.6454 122.102 61.6454 122.356 61.3915L123.423 60.3238V66.5929C123.423 66.9519 123.714 67.2429 124.073 67.2429H132.783C133.142 67.2429 133.433 66.9519 133.433 66.5929V60.3239L134.5 61.3915C134.754 61.6454 135.166 61.6454 135.419 61.3915C135.673 61.1377 135.673 60.7261 135.419 60.4723L133.247 58.2999C133.244 58.2966 133.241 58.2934 133.237 58.2902L128.888 53.9404ZM132.133 59.0239L128.428 55.3192L124.723 59.0238V65.9429H132.133V59.0239Z" fill="#5F6368"/>
<rect x="152" y="46" width="1115" height="28" rx="14" fill="#F1F3F4"/>
<g clip-path="url(#clip0_129_1340)">
<path d="M178.86 60.4224C178.86 59.9465 178.82 59.4681 178.736 59H172V61.6956H175.858C175.697 62.5649 175.183 63.334 174.43 63.8227V65.5717H176.731C178.083 64.3526 178.86 62.5521 178.86 60.4224Z" fill="#4285F4"/>
<path d="M172.14 67.0024C174.066 67.0024 175.69 66.3825 176.874 65.3125L174.572 63.5635C173.932 63.9905 173.106 64.2322 172.142 64.2322C170.279 64.2322 168.7 63.0002 168.133 61.3438H165.758V63.1468C166.97 65.5106 169.44 67.0024 172.14 67.0024Z" fill="#34A853"/>
<path d="M168.13 61.3426C167.831 60.4732 167.831 59.5318 168.13 58.6624V56.8594H165.758C164.745 58.8373 164.745 61.1677 165.758 63.1456L168.13 61.3426Z" fill="#FBBC04"/>
<path d="M172.14 55.7706C173.158 55.7552 174.142 56.1307 174.879 56.8201L176.918 54.8215C175.627 53.6332 173.914 52.9799 172.14 53.0005C169.44 53.0005 166.97 54.4923 165.758 56.8586L168.13 58.6617C168.694 57.0027 170.277 55.7706 172.14 55.7706Z" fill="#EA4335"/>
</g>
<path d="M326 41H70C74.4 41 78 37.4 78 33V15C78 10.6 81.6 7 86 7H310C314.4 7 318 10.6 318 15V33C318 37.4 321.6 41 326 41Z" fill="white"/>
<g clip-path="url(#clip1_129_1340)">
<path d="M103.86 24.4224C103.86 23.9465 103.82 23.4681 103.736 23H97V25.6956H100.858C100.697 26.5649 100.183 27.334 99.43 27.8227V29.5717H101.731C103.083 28.3526 103.86 26.5521 103.86 24.4224Z" fill="#4285F4"/>
<path d="M97.1398 31.0024C99.066 31.0024 100.69 30.3825 101.874 29.3125L99.5724 27.5635C98.9321 27.9905 98.1055 28.2322 97.1424 28.2322C95.2793 28.2322 93.6995 27.0002 93.1327 25.3438H90.7578V27.1468C91.9702 29.5106 94.4395 31.0024 97.1398 31.0024Z" fill="#34A853"/>
<path d="M93.13 25.3426C92.8308 24.4732 92.8308 23.5318 93.13 22.6624V20.8594H90.7577C89.7448 22.8373 89.7448 25.1677 90.7577 27.1456L93.13 25.3426Z" fill="#FBBC04"/>
<path d="M97.1398 19.7706C98.158 19.7552 99.1421 20.1307 99.8795 20.8201L101.918 18.8215C100.627 17.6332 98.9138 16.9799 97.1398 17.0005C94.4395 17.0005 91.9702 18.4923 90.7578 20.8586L93.1301 22.6617C93.6943 21.0027 95.2767 19.7706 97.1398 19.7706Z" fill="#EA4335"/>
</g>
<path d="M300 21L306 27M300 27L306 21" stroke="#5F6368" stroke-width="1.3" stroke-linecap="round" stroke-linejoin="round"/>
<path d="M566 7H310C314.4 7 318 10.6 318 15V33C318 37.4 321.6 41 326 41H550C554.4 41 558 37.4 558 33V15C558 10.6 561.6 7 566 7Z" fill="#DEE1E6"/>
<path d="M334 19V29.0001M329 24H339" stroke="#5F6368" stroke-width="1.5" stroke-linecap="round" stroke-linejoin="round"/>
<path d="M1440 78H0V80H1440V78Z" fill="black" fill-opacity="0.05" mask="url(#path-1-outside-1_129_1340)"/>
<line x1="63.5" y1="79" x2="63.4999" y2="1371" stroke="#EBEEF0"/>
<path d="M40.5156 171.031C40.7891 171.266 40.7891 171.656 40.5547 171.93C40.3594 172.203 39.9688 172.203 39.6953 171.969L38.25 170.68V178.375C38.25 180.133 36.8438 181.5 35.125 181.5H23.875C22.1172 181.5 20.75 180.133 20.75 178.375V170.68L19.2656 171.969C18.9922 172.203 18.6016 172.203 18.4062 171.93C18.1719 171.656 18.1719 171.266 18.4453 171.031L29.0703 161.695C29.3047 161.461 29.6562 161.461 29.8906 161.695L40.5156 171.031ZM23.875 180.25H26.375V174C26.375 173.336 26.9219 172.75 27.625 172.75H31.375C32.0391 172.75 32.625 173.336 32.625 174V180.25H35.125C36.1406 180.25 37 179.43 37 178.375V169.586L29.5 162.984L22 169.586V178.375C22 179.43 22.8203 180.25 23.875 180.25ZM27.625 180.25H31.375V174H27.625V180.25Z" fill="#505A62"/>
<path d="M37.4609 206.5C38.8672 206.5 39.9609 207.633 39.9609 209V220.172C39.9609 221.5 38.8281 222.633 37.4609 222.633H31.8359L26.9531 226.305C26.6406 226.5 26.2109 226.305 26.2109 225.914V222.672H22.4609C21.0547 222.672 19.9609 221.578 19.9609 220.211V209C19.9609 207.633 21.0547 206.5 22.4609 206.5H37.4609ZM38.75 220.25V209C38.75 208.336 38.1641 207.75 37.5 207.75H22.5C21.7969 207.75 21.25 208.336 21.25 209V220.25C21.25 220.953 21.7969 221.5 22.5 221.5H26.875C27.1875 221.5 27.5 221.812 27.5 222.125V224.469L31.0938 221.773C31.3281 221.617 31.5625 221.5 31.8359 221.5H37.5C38.1641 221.5 38.75 220.953 38.75 220.25ZM30.625 215.875C30.9375 215.875 31.2109 216.188 31.2109 216.5C31.2109 216.852 30.9375 217.125 30.625 217.125H25.625C25.2734 217.125 24.9609 216.852 25 216.5C25 216.188 25.2734 215.875 25.625 215.875H30.625ZM34.375 212.125C34.6875 212.125 34.9609 212.438 34.9609 212.75C34.9609 213.102 34.6875 213.375 34.375 213.375H25.625C25.2734 213.375 24.9609 213.102 25 212.75C25 212.438 25.2734 212.125 25.625 212.125H34.375Z" fill="#505A62"/>
<line x1="6" y1="295.5" x2="50" y2="295.5" stroke="#EBEEF0"/>
<path d="M19 319.625C19 318.609 19.8203 317.75 20.875 317.75H24.625C25.6406 317.75 26.5 318.609 26.5 319.625V323.375C26.5 324.43 25.6406 325.25 24.625 325.25H20.875C19.8203 325.25 19 324.43 19 323.375V319.625ZM20.25 319.625V323.375C20.25 323.727 20.5234 324 20.875 324H24.625C24.9375 324 25.25 323.727 25.25 323.375V319.625C25.25 319.312 24.9375 319 24.625 319H20.875C20.5234 319 20.25 319.312 20.25 319.625ZM19 329.625C19 328.609 19.8203 327.75 20.875 327.75H24.625C25.6406 327.75 26.5 328.609 26.5 329.625V333.375C26.5 334.43 25.6406 335.25 24.625 335.25H20.875C19.8203 335.25 19 334.43 19 333.375V329.625ZM20.25 329.625V333.375C20.25 333.727 20.5234 334 20.875 334H24.625C24.9375 334 25.25 333.727 25.25 333.375V329.625C25.25 329.312 24.9375 329 24.625 329H20.875C20.5234 329 20.25 329.312 20.25 329.625ZM34.625 317.75C35.6406 317.75 36.5 318.609 36.5 319.625V323.375C36.5 324.43 35.6406 325.25 34.625 325.25H30.875C29.8203 325.25 29 324.43 29 323.375V319.625C29 318.609 29.8203 317.75 30.875 317.75H34.625ZM34.625 319H30.875C30.5234 319 30.25 319.312 30.25 319.625V323.375C30.25 323.727 30.5234 324 30.875 324H34.625C34.9375 324 35.25 323.727 35.25 323.375V319.625C35.25 319.312 34.9375 319 34.625 319ZM29 329.625C29 328.609 29.8203 327.75 30.875 327.75H34.625C35.6406 327.75 36.5 328.609 36.5 329.625V333.375C36.5 334.43 35.6406 335.25 34.625 335.25H30.875C29.8203 335.25 29 334.43 29 333.375V329.625ZM30.25 329.625V333.375C30.25 333.727 30.5234 334 30.875 334H34.625C34.9375 334 35.25 333.727 35.25 333.375V329.625C35.25 329.312 34.9375 329 34.625 329H30.875C30.5234 329 30.25 329.312 30.25 329.625Z" fill="#505A62"/>
<g clip-path="url(#clip2_129_1340)">
<mask id="mask0_129_1340" style="mask-type:luminance" maskUnits="userSpaceOnUse" x="20" y="249" width="20" height="20">
<path d="M40 249H20V269H40V249Z" fill="white"/>
</mask>
<g mask="url(#mask0_129_1340)">
<path fill-rule="evenodd" clip-rule="evenodd" d="M36.8757 249C37.0656 249 37.2452 249.086 37.3638 249.235L39.8638 252.36C40.0463 252.588 40.0463 252.912 39.8638 253.14L37.3638 256.265C37.2452 256.414 37.0656 256.5 36.8757 256.5C36.6859 256.5 36.5063 256.414 36.3877 256.265L33.8877 253.14C33.7051 252.912 33.7051 252.588 33.8877 252.36L36.3877 249.235C36.5063 249.086 36.6859 249 36.8757 249ZM35.1761 252.75L36.8757 254.875L38.5753 252.75L36.8757 250.625L35.1761 252.75ZM26.8381 252.666C27.1199 252.134 27.8815 252.134 28.1633 252.666L30.3451 256.781L34.4602 258.962C34.9918 259.244 34.9918 260.006 34.4602 260.288L30.3451 262.469L28.1633 266.584C27.8815 267.116 27.1199 267.116 26.8381 266.584L24.6564 262.469L20.5413 260.288C20.0097 260.006 20.0097 259.244 20.5413 258.962L24.6564 256.781L26.8381 252.666ZM27.5007 254.084L25.6888 257.502C25.6185 257.634 25.5101 257.743 25.3775 257.813L21.96 259.625L25.3775 261.437C25.5101 261.507 25.6185 261.616 25.6888 261.748L27.5007 265.166L29.3126 261.748C29.3829 261.616 29.4913 261.507 29.6239 261.437L33.0415 259.625L29.6239 257.813C29.4913 257.743 29.3829 257.634 29.3126 257.502L27.5007 254.084ZM37.5007 262.125C37.5007 261.78 37.2209 261.5 36.8757 261.5C36.5305 261.5 36.2507 261.78 36.2507 262.125V264H34.3757C34.0305 264 33.7507 264.28 33.7507 264.625C33.7507 264.97 34.0305 265.25 34.3757 265.25H36.2507V267.125C36.2507 267.47 36.5305 267.75 36.8757 267.75C37.2209 267.75 37.5007 267.47 37.5007 267.125V265.25H39.3757C39.7209 265.25 40.0007 264.97 40.0007 264.625C40.0007 264.28 39.7209 264 39.3757 264H37.5007V262.125Z" fill="#505A62"/>
</g>
</g>
<rect x="3" y="84" width="53" height="54" rx="19" fill="#F7FAFF"/>
<g clip-path="url(#clip3_129_1340)">
<path fill-rule="evenodd" clip-rule="evenodd" d="M16.0879 118.904C15.7776 119.431 15.4292 120.042 15.1332 120.529C14.8683 120.995 15.0105 121.595 15.453 121.88L21.6585 125.854C21.8763 125.994 22.139 126.037 22.3876 125.974C22.6362 125.91 22.8499 125.745 22.9807 125.516C23.2289 125.084 23.5487 124.523 23.8972 123.922C26.3555 119.699 28.8281 120.216 33.2865 122.431L39.4394 125.477C39.6724 125.592 39.9404 125.604 40.1823 125.511C40.4243 125.417 40.6194 125.226 40.7234 124.98L43.6782 118.025C43.8869 117.528 43.6745 116.949 43.2008 116.723C41.9025 116.088 39.3201 114.821 36.9954 113.653C28.6324 109.426 21.5248 109.699 16.0879 118.904Z" fill="url(#paint0_linear_129_1340)"/>
<path fill-rule="evenodd" clip-rule="evenodd" d="M43.9123 103.119C44.2225 102.593 44.571 101.982 44.8669 101.495C45.1318 101.029 44.9896 100.428 44.5471 100.144L38.3417 96.1695C38.1221 96.0156 37.8509 95.9635 37.593 96.0256C37.3351 96.0878 37.1135 96.2586 36.9813 96.4974C36.7331 96.9296 36.4132 97.4909 36.0648 98.092C33.6065 102.315 31.1339 101.798 26.6755 99.5823L20.5417 96.552C20.3086 96.4366 20.0406 96.4242 19.7987 96.5178C19.5568 96.6114 19.3616 96.803 19.2576 97.0488L16.3029 104.004C16.0941 104.5 16.3065 105.08 16.7802 105.305C18.0786 105.941 20.661 107.208 22.9857 108.375C31.3678 112.598 38.4754 112.315 43.9123 103.119Z" fill="url(#paint1_linear_129_1340)"/>
</g>
<mask id="path-34-inside-2_129_1340" fill="white">
<path d="M64 81H1916V142H64V81Z"/>
</mask>
<path d="M64 81H1916V142H64V81Z" fill="white"/>
<path d="M116.575 109.905C117.005 110.435 117.22 111.09 117.22 111.87V117H115.75V113.52H113.005C112.365 113.52 111.925 113.615 111.685 113.805C111.455 113.985 111.34 114.28 111.34 114.69C111.34 115.41 111.86 115.77 112.9 115.77C113.17 115.77 113.45 115.755 113.74 115.725C114.03 115.685 114.26 115.64 114.43 115.59V116.91C114.23 116.97 113.955 117.02 113.605 117.06C113.255 117.1 112.95 117.12 112.69 117.12C111.8 117.12 111.1 116.91 110.59 116.49C110.09 116.06 109.84 115.46 109.84 114.69C109.84 113.91 110.08 113.31 110.56 112.89C111.05 112.47 111.785 112.26 112.765 112.26H115.75V112.02C115.75 110.72 115.025 110.07 113.575 110.07C112.985 110.07 112.525 110.18 112.195 110.4C111.865 110.61 111.675 110.91 111.625 111.3H110.155C110.215 110.55 110.54 109.935 111.13 109.455C111.73 108.965 112.575 108.72 113.665 108.72C114.355 108.72 114.97 108.845 115.51 109.095L116.17 108.3H117.91L116.575 109.905ZM110.918 106.5H117.218V107.67H110.918V106.5ZM127.028 108.9V117H125.588V115.95C124.998 116.77 124.093 117.18 122.873 117.18C122.303 117.18 121.778 117.055 121.298 116.805C120.828 116.555 120.448 116.185 120.158 115.695C119.878 115.205 119.738 114.62 119.738 113.94V108.9H121.208V113.55C121.208 114.31 121.388 114.88 121.748 115.26C122.108 115.64 122.583 115.83 123.173 115.83C123.893 115.83 124.468 115.62 124.898 115.2C125.338 114.78 125.558 114.18 125.558 113.4V108.9H127.028ZM133.301 108.72C134.001 108.72 134.631 108.85 135.191 109.11C135.761 109.37 136.206 109.765 136.526 110.295C136.856 110.825 137.021 111.475 137.021 112.245V117H135.551V112.395C135.551 111.615 135.346 111.035 134.936 110.655C134.536 110.265 133.991 110.07 133.301 110.07C132.611 110.07 132.061 110.265 131.651 110.655C131.251 111.035 131.051 111.615 131.051 112.395V113.19C131.381 112.71 131.931 112.47 132.701 112.47H133.886V113.79H132.881C132.221 113.79 131.751 113.93 131.471 114.21C131.191 114.48 131.051 114.94 131.051 115.59V117H129.581V112.245C129.581 111.475 129.741 110.825 130.061 110.295C130.391 109.765 130.836 109.37 131.396 109.11C131.966 108.85 132.601 108.72 133.301 108.72ZM137.952 107.7H133.977V106.41C133.977 106.26 133.947 106.155 133.887 106.095C133.817 106.025 133.707 105.99 133.557 105.99H132.702V104.85H134.247C134.947 104.85 135.297 105.2 135.297 105.9V106.5H137.952V107.7ZM141.942 108.72C142.942 108.72 143.742 108.995 144.342 109.545C144.942 110.085 145.242 110.82 145.242 111.75V117H143.772V111.96C143.772 111.35 143.607 110.88 143.277 110.55C142.957 110.21 142.482 110.04 141.852 110.04C141.342 110.04 140.942 110.15 140.652 110.37C140.362 110.58 140.202 110.855 140.172 111.195H138.732C138.782 110.485 139.077 109.895 139.617 109.425C140.167 108.955 140.942 108.72 141.942 108.72ZM158.901 117L158.061 116.055C157.661 116.425 157.196 116.705 156.666 116.895C156.146 117.085 155.591 117.18 155.001 117.18C154.261 117.18 153.601 117.055 153.021 116.805C152.441 116.545 151.986 116.175 151.656 115.695C151.336 115.215 151.176 114.64 151.176 113.97C151.176 113.19 151.381 112.58 151.791 112.14C152.201 111.69 152.771 111.29 153.501 110.94C153.131 110.54 152.846 110.175 152.646 109.845C152.446 109.515 152.346 109.135 152.346 108.705C152.346 108.025 152.576 107.47 153.036 107.04C153.506 106.6 154.166 106.38 155.016 106.38C155.786 106.38 156.421 106.585 156.921 106.995C157.431 107.395 157.686 107.935 157.686 108.615C157.686 109.295 157.506 109.84 157.146 110.25C156.796 110.66 156.301 111.025 155.661 111.345L157.896 113.85C158.106 113.31 158.211 112.655 158.211 111.885H159.711C159.711 113.095 159.451 114.14 158.931 115.02L160.686 117H158.901ZM153.846 108.675C153.846 108.955 153.921 109.22 154.071 109.47C154.231 109.71 154.466 110.005 154.776 110.355C155.236 110.125 155.586 109.885 155.826 109.635C156.066 109.375 156.186 109.05 156.186 108.66C156.186 108.35 156.076 108.105 155.856 107.925C155.636 107.735 155.361 107.64 155.031 107.64C154.661 107.64 154.371 107.73 154.161 107.91C153.951 108.08 153.846 108.335 153.846 108.675ZM155.046 115.8C155.886 115.8 156.581 115.54 157.131 115.02L154.386 111.945C153.846 112.215 153.431 112.5 153.141 112.8C152.851 113.1 152.706 113.485 152.706 113.955C152.706 114.535 152.926 114.99 153.366 115.32C153.816 115.64 154.376 115.8 155.046 115.8ZM173.799 108.9V117H172.269L169.914 113.115L167.499 117H165.969V110.37C165.969 109.85 166.084 109.475 166.314 109.245C166.554 109.015 166.939 108.9 167.469 108.9H168.849V110.25H167.964C167.774 110.25 167.634 110.29 167.544 110.37C167.464 110.45 167.424 110.58 167.424 110.76V114.87L169.269 111.9H170.559L172.344 114.825V108.9H173.799ZM179.759 108.72C180.799 108.72 181.649 108.985 182.309 109.515C182.979 110.045 183.314 110.83 183.314 111.87V117H181.844V113.52H179.099C178.459 113.52 178.019 113.615 177.779 113.805C177.549 113.985 177.434 114.28 177.434 114.69C177.434 115.41 177.954 115.77 178.994 115.77C179.264 115.77 179.544 115.755 179.834 115.725C180.124 115.685 180.354 115.64 180.524 115.59V116.91C180.324 116.97 180.049 117.02 179.699 117.06C179.349 117.1 179.044 117.12 178.784 117.12C177.894 117.12 177.194 116.91 176.684 116.49C176.184 116.06 175.934 115.46 175.934 114.69C175.934 113.91 176.174 113.31 176.654 112.89C177.144 112.47 177.879 112.26 178.859 112.26H181.844V112.02C181.844 111.33 181.659 110.835 181.289 110.535C180.919 110.225 180.379 110.07 179.669 110.07C179.079 110.07 178.619 110.18 178.289 110.4C177.959 110.61 177.769 110.91 177.719 111.3H176.249C176.309 110.55 176.634 109.935 177.224 109.455C177.824 108.965 178.669 108.72 179.759 108.72ZM177.011 106.5H183.311V107.67H177.011V106.5ZM189.896 109.62C190.046 109.38 190.266 109.185 190.556 109.035C190.846 108.885 191.181 108.81 191.561 108.81C192.231 108.81 192.736 109.03 193.076 109.47C193.426 109.91 193.601 110.455 193.601 111.105V117H192.131V111.315C192.131 110.545 191.856 110.16 191.306 110.16C190.856 110.16 190.581 110.4 190.481 110.88H189.311C189.181 110.39 188.891 110.145 188.441 110.145C187.961 110.145 187.591 110.41 187.331 110.94C187.071 111.46 186.941 112.1 186.941 112.86C186.941 113.83 187.166 114.565 187.616 115.065C188.066 115.555 188.671 115.8 189.431 115.8C189.901 115.8 190.341 115.745 190.751 115.635V116.925C190.581 116.995 190.346 117.05 190.046 117.09C189.746 117.13 189.471 117.15 189.221 117.15C188.061 117.15 187.141 116.78 186.461 116.04C185.781 115.3 185.441 114.24 185.441 112.86C185.441 112.16 185.556 111.505 185.786 110.895C186.016 110.275 186.356 109.775 186.806 109.395C187.256 109.005 187.786 108.81 188.396 108.81C188.756 108.81 189.061 108.885 189.311 109.035C189.561 109.175 189.756 109.37 189.896 109.62ZM199.698 108.72C200.838 108.72 201.758 109.02 202.458 109.62C203.158 110.22 203.508 111.095 203.508 112.245V117H202.038V112.395C202.038 111.605 201.828 111.02 201.408 110.64C200.998 110.26 200.418 110.07 199.668 110.07C198.968 110.07 198.413 110.22 198.003 110.52C197.603 110.82 197.378 111.235 197.328 111.765H199.698V112.815C199.188 112.895 198.818 113.055 198.588 113.295C198.358 113.535 198.243 113.94 198.243 114.51V115.425C198.243 115.975 198.113 116.375 197.853 116.625C197.603 116.875 197.198 117 196.638 117H195.558V115.65H196.263C196.443 115.65 196.573 115.615 196.653 115.545C196.733 115.475 196.773 115.35 196.773 115.17V114.33C196.773 113.97 196.858 113.65 197.028 113.37C197.208 113.09 197.473 112.875 197.823 112.725H195.888V111.96C195.888 111.37 196.038 110.83 196.338 110.34C196.648 109.85 197.093 109.46 197.673 109.17C198.253 108.87 198.928 108.72 199.698 108.72ZM200.601 105.27V105.69C200.601 105.98 200.666 106.19 200.796 106.32C200.926 106.44 201.151 106.5 201.471 106.5H205.401V107.67H201.381C200.721 107.67 200.216 107.52 199.866 107.22C199.516 106.92 199.341 106.47 199.341 105.87V105.27H200.601ZM218.361 108.9V117H216.921V115.98C216.361 116.78 215.526 117.18 214.416 117.18C213.886 117.18 213.401 117.075 212.961 116.865C212.521 116.645 212.166 116.315 211.896 115.875C211.626 115.435 211.491 114.89 211.491 114.24V112.275C211.491 111.525 211.296 110.97 210.906 110.61C210.526 110.25 209.991 110.07 209.301 110.07C208.631 110.07 208.111 110.215 207.741 110.505C207.381 110.795 207.181 111.215 207.141 111.765H209.211V112.815C208.661 112.855 208.236 113.04 207.936 113.37C207.636 113.7 207.486 114.13 207.486 114.66V114.96C207.486 115.23 207.536 115.42 207.636 115.53C207.746 115.63 207.936 115.68 208.206 115.68H209.211V117H207.906C207.256 117 206.776 116.85 206.466 116.55C206.166 116.24 206.016 115.77 206.016 115.14V114.63C206.016 114.2 206.126 113.815 206.346 113.475C206.576 113.135 206.901 112.885 207.321 112.725H205.701V111.96C205.701 111.36 205.846 110.815 206.136 110.325C206.426 109.835 206.846 109.445 207.396 109.155C207.946 108.865 208.591 108.72 209.331 108.72C210.411 108.72 211.286 109.01 211.956 109.59C212.626 110.17 212.961 111.015 212.961 112.125V113.85C212.961 115.17 213.546 115.83 214.716 115.83C215.366 115.83 215.891 115.625 216.291 115.215C216.691 114.795 216.891 114.2 216.891 113.43V108.9H218.361ZM226.194 108.72C227.064 108.72 227.769 108.98 228.309 109.5C228.859 110.01 229.134 110.8 229.134 111.87V117H227.664V112.11C227.664 110.75 227.104 110.07 225.984 110.07C225.144 110.07 224.499 110.405 224.049 111.075C223.599 111.735 223.374 112.63 223.374 113.76V117H221.904V113.61C221.904 112.84 221.979 112.225 222.129 111.765C222.289 111.295 222.539 110.855 222.879 110.445L222.684 110.265C222.364 110.655 221.974 110.85 221.514 110.85C221.064 110.85 220.714 110.73 220.464 110.49C220.224 110.25 220.104 109.88 220.104 109.38V108.9H221.334V109.14C221.334 109.35 221.374 109.5 221.454 109.59C221.534 109.67 221.654 109.71 221.814 109.71C222.024 109.71 222.184 109.645 222.294 109.515C222.414 109.385 222.514 109.18 222.594 108.9H223.824V109.68C224.434 109.04 225.224 108.72 226.194 108.72ZM225.772 107.73V107.07C225.772 106.54 225.927 106.155 226.237 105.915C226.537 105.665 227.002 105.54 227.632 105.54H230.032V106.71H227.842C227.572 106.71 227.387 106.76 227.287 106.86C227.177 106.95 227.122 107.12 227.122 107.37V107.73H225.772Z" fill="#1F272E"/>
<rect x="78" y="99" width="155" height="22" rx="11" fill="#D9D9D9"/>
<rect x="246" y="99" width="25" height="22" rx="11" fill="#D9D9D9"/>
<path d="M1916 141H64V143H1916V141Z" fill="#EBEEF0" mask="url(#path-34-inside-2_129_1340)"/>
<rect x="905" y="79" width="255" height="905" transform="rotate(90 905 79)" fill="url(#paint2_linear_129_1340)"/>
<rect x="375" width="333" height="309" fill="url(#paint3_linear_129_1340)"/>
<defs>
<linearGradient id="paint0_linear_129_1340" x1="43.5111" y1="127.906" x2="36.0832" y2="111.532" gradientUnits="userSpaceOnUse">
<stop offset="0.18" stop-color="#0052CC"/>
<stop offset="1" stop-color="#2684FF"/>
</linearGradient>
<linearGradient id="paint1_linear_129_1340" x1="16.489" y1="94.1128" x2="23.9286" y2="110.494" gradientUnits="userSpaceOnUse">
<stop offset="0.18" stop-color="#0052CC"/>
<stop offset="1" stop-color="#2684FF"/>
</linearGradient>
<linearGradient id="paint2_linear_129_1340" x1="1163.86" y1="495.028" x2="912.288" y2="496.538" gradientUnits="userSpaceOnUse">
<stop stop-color="white"/>
<stop offset="1" stop-color="white" stop-opacity="0"/>
</linearGradient>
<linearGradient id="paint3_linear_129_1340" x1="708" y1="143.116" x2="571.673" y2="143.116" gradientUnits="userSpaceOnUse">
<stop stop-color="white"/>
<stop offset="1" stop-color="white" stop-opacity="0"/>
</linearGradient>
<clipPath id="clip0_129_1340">
<rect width="14" height="14" fill="white" transform="translate(165 53)"/>
</clipPath>
<clipPath id="clip1_129_1340">
<rect width="14" height="14" fill="white" transform="translate(90 17)"/>
</clipPath>
<clipPath id="clip2_129_1340">
<rect width="20" height="20" fill="white" transform="translate(20 249)"/>
</clipPath>
<clipPath id="clip3_129_1340">
<rect width="30" height="30" fill="white" transform="translate(15 96)"/>
</clipPath>
</defs>
</svg>
