<svg width="20" height="20" viewBox="0 0 20 20" fill="none" xmlns="http://www.w3.org/2000/svg">
<path d="M17.0138 16.5402V8.79769C17.0138 8.59235 16.9323 8.39541 16.7871 8.25021C16.6419 8.10501 16.4449 8.02344 16.2396 8.02344H13.1426" stroke="#6B7280" stroke-width="1.5" stroke-linecap="round" stroke-linejoin="round"/>
<path d="M3.07812 16.5451V4.15707C3.07812 3.95172 3.1597 3.75479 3.3049 3.60959C3.4501 3.46439 3.64703 3.38281 3.85238 3.38281H12.3692C12.5745 3.38281 12.7714 3.46439 12.9166 3.60959C13.0618 3.75479 13.1434 3.95172 13.1434 4.15707V16.5451" stroke="#6B7280" stroke-width="1.5" stroke-linecap="round" stroke-linejoin="round"/>
<path d="M5.98047 6.64844H10.2389" stroke="#6B7280" stroke-width="1.5" stroke-linecap="round" stroke-linejoin="round"/>
<path d="M5.98047 9.96094H10.2389" stroke="#6B7280" stroke-width="1.5" stroke-linecap="round" stroke-linejoin="round"/>
<path d="M5.97989 16.5391H10.2383V13.2057H5.97989V16.5391Z" stroke="#6B7280" stroke-width="1.5" stroke-linecap="round" stroke-linejoin="round"/>
<path d="M17.7878 16.5391H2.30273" stroke="#6B7280" stroke-width="1.5" stroke-linecap="round" stroke-linejoin="round"/>
</svg>
