<svg width="68" height="68" viewBox="0 0 68 68" fill="none" xmlns="http://www.w3.org/2000/svg">
<path fill-rule="evenodd" clip-rule="evenodd" d="M51.7968 0C61.625 0 68 6.375 68 16.2032V51.7968C68 61.625 61.625 68 51.7968 68H16.2032C6.375 68 0 61.625 0 51.7968V16.2032C0 6.375 6.375 0 16.2032 0H51.7968Z" fill="#081245"/>
<path fill-rule="evenodd" clip-rule="evenodd" d="M31.1667 28.0609V21.2531C31.1667 17.9621 28.5028 15.2999 25.2167 15.2999C21.9299 15.2999 19.2667 17.9652 19.2667 21.2531V47.3135C19.2667 50.6044 21.9306 53.2666 25.2167 53.2666C28.5036 53.2666 31.1667 50.6013 31.1667 47.3135V39.8066L40.2721 51.0508C42.3393 53.6036 46.0849 53.9971 48.6393 51.9287C51.193 49.8607 51.5842 46.1108 49.5201 43.5619L41.6474 33.8399L48.0752 24.6601C49.9565 21.9734 49.3046 18.2599 46.6128 16.3751C43.9204 14.4899 40.2115 15.1437 38.3273 17.8346L31.1667 28.0609Z" fill="#2BDE73"/>
</svg>
