<svg width="85" height="85" viewBox="0 0 85 85" fill="none" xmlns="http://www.w3.org/2000/svg">
<rect x="0.5" y="0.5" width="84" height="84" rx="9.5" fill="white" stroke="#EAECF0"/>
<g clip-path="url(#clip0_43_3771)">
<path d="M17 33.7186V49.8226C17 52.5856 19.9881 54.3522 22.4622 53.0519L52.1765 37.4359C53.3869 36.7998 54.1429 35.5582 54.1429 34.2066V18.1026C54.1429 15.3395 51.1548 13.5729 48.6806 14.8731L18.9664 30.4891C17.756 31.1252 17 32.3669 17 33.7186Z" fill="#2684FF"/>
<path opacity="0.3" d="M31.8574 50.3045V66.4085C31.8574 69.1716 34.8455 70.9381 37.3196 69.6379L67.0339 54.0219C68.2443 53.3858 69.0003 52.1443 69.0003 50.7925V34.6885C69.0003 31.9255 66.0123 30.1588 63.5381 31.4591L33.8238 47.0752C32.6135 47.711 31.8574 48.9528 31.8574 50.3045Z" fill="#0066FF"/>
</g>
<defs>
<clipPath id="clip0_43_3771">
<rect width="52" height="61" fill="white" transform="translate(17 12)"/>
</clipPath>
</defs>
</svg>
