<svg width="17" height="14" viewBox="0 0 17 14" fill="none" xmlns="http://www.w3.org/2000/svg">
<path d="M4.39258 3.97656C5.81445 2.55469 8.125 2.55469 9.54688 3.97656C10.918 5.32227 10.9688 7.50586 9.72461 8.95312L9.57227 9.10547C9.34375 9.35938 8.96289 9.38477 8.70898 9.18164C8.45508 8.95312 8.42969 8.57227 8.6582 8.31836L8.78516 8.16602C9.64844 7.20117 9.59766 5.75391 8.68359 4.83984C7.74414 3.875 6.19531 3.875 5.23047 4.83984L2.36133 7.70898C1.42188 8.67383 1.42188 10.1973 2.36133 11.1621C3.27539 12.0508 4.72266 12.1016 5.6875 11.2637L5.83984 11.1367C6.09375 10.9082 6.47461 10.9336 6.70312 11.1875C6.93164 11.4414 6.90625 11.8223 6.65234 12.0508L6.5 12.1777C5.05273 13.4473 2.86914 13.3711 1.49805 12.0254C0.0761719 10.6035 0.0761719 8.26758 1.49805 6.8457L4.39258 3.97656ZM11.8574 10.2988C10.4102 11.7207 8.09961 11.7207 6.67773 10.2988C5.30664 8.92773 5.25586 6.76953 6.5 5.32227L6.62695 5.16992C6.85547 4.91602 7.23633 4.89062 7.49023 5.11914C7.74414 5.34766 7.76953 5.72852 7.54102 5.98242L7.43945 6.10938C6.57617 7.07422 6.62695 8.52148 7.54102 9.43555C8.48047 10.375 10.0293 10.375 10.9941 9.43555L13.8633 6.56641C14.8027 5.60156 14.8027 4.07812 13.8633 3.11328C12.9492 2.22461 11.502 2.17383 10.5371 3.01172L10.3848 3.13867C10.1309 3.36719 9.75 3.3418 9.52148 3.08789C9.29297 2.83398 9.31836 2.45312 9.57227 2.22461L9.72461 2.09766C11.1719 0.828125 13.3555 0.904297 14.7266 2.25C16.1484 3.67188 16.1484 5.98242 14.7266 7.42969L11.8574 10.2988Z" fill="#0099FF"/>
</svg>
