<svg width="106" height="56" viewBox="0 0 106 56" fill="none" xmlns="http://www.w3.org/2000/svg">
<rect width="106" height="56" rx="4" fill="white"/>
<rect x="50" y="24" width="16" height="3" rx="1.5" fill="#DDDDDD"/>
<rect x="50" y="31" width="47" height="3" rx="1.5" fill="#DDDDDD"/>
<rect x="50" y="37" width="24" height="3" rx="1.5" fill="#DDDDDD"/>
<path d="M24.5 29.5C20.6172 29.5 17.5 26.3828 17.5 22.5C17.5 18.6719 20.6172 15.5 24.5 15.5C28.3281 15.5 31.5 18.6719 31.5 22.5C31.5 26.3828 28.3281 29.5 24.5 29.5ZM21.9844 32.125H26.9609C32.375 32.125 36.75 36.5 36.75 41.9141C36.75 42.7891 35.9844 43.5 35.1094 43.5H13.8359C12.9609 43.5 12.25 42.7891 12.25 41.9141C12.25 36.5 16.5703 32.125 21.9844 32.125Z" fill="#00B2FF"/>
</svg>
