<svg width="17" height="18" viewBox="0 0 17 18" fill="none" xmlns="http://www.w3.org/2000/svg">
<g clip-path="url(#clip0_30_3054)">
<path fill-rule="evenodd" clip-rule="evenodd" d="M0.850098 4.75696C0.850098 4.35321 1.0626 3.97921 1.41535 3.77946L6.8341 0.651458C7.00596 0.552236 7.2009 0.5 7.39935 0.5C7.59779 0.5 7.79274 0.552236 7.9646 0.651458L13.3833 3.77946C13.555 3.87855 13.6975 4.02102 13.7968 4.19258C13.896 4.36415 13.9483 4.55878 13.9486 4.75696V7.30696L11.8236 6.07871C11.6517 5.97949 11.4568 5.92725 11.2583 5.92725C11.0599 5.92725 10.865 5.97949 10.6931 6.07871L6.65135 8.40771C6.47892 8.50626 6.33551 8.6485 6.23553 8.8201C6.13555 8.9917 6.08255 9.18661 6.08185 9.38521V14.039C6.08185 14.4215 6.2731 14.77 6.5876 14.9782L1.41535 11.9947C1.24372 11.8956 1.10115 11.7531 1.00194 11.5816C0.902732 11.41 0.850368 11.2154 0.850098 11.0172V4.75696Z" fill="url(#paint0_linear_30_3054)"/>
<path fill-rule="evenodd" clip-rule="evenodd" d="M6.5874 14.9795L6.8339 15.124C7.1824 15.328 7.6159 15.328 7.9644 15.124L13.3832 11.996C13.5548 11.8969 13.6974 11.7544 13.7966 11.5829C13.8958 11.4113 13.9481 11.2167 13.9484 11.0185V7.3125L15.8482 8.409C16.0198 8.50809 16.1624 8.65056 16.2616 8.82212C16.3608 8.99369 16.4131 9.18832 16.4134 9.3865V14.0403C16.4134 14.444 16.2009 14.818 15.8482 15.0177L11.8192 17.3467C11.4707 17.5507 11.0414 17.5507 10.6929 17.3467L6.65115 15.022L6.5874 14.9795Z" fill="#9966FF"/>
<path fill-rule="evenodd" clip-rule="evenodd" d="M13.9483 7.31365L11.8233 6.08115C11.6514 5.98192 11.4565 5.92969 11.258 5.92969C11.0596 5.92969 10.8647 5.98192 10.6928 6.08115L6.65104 8.41015C6.47862 8.5087 6.3352 8.65093 6.23523 8.82254C6.13525 8.99414 6.08224 9.18905 6.08154 9.38765V14.0414C6.08154 14.4239 6.27279 14.7724 6.58729 14.9806L6.83379 15.1251C7.18229 15.3291 7.61579 15.3291 7.96429 15.1251L13.383 11.9971C13.5547 11.8981 13.6972 11.7556 13.7964 11.584C13.8957 11.4125 13.948 11.2178 13.9483 11.0196V7.31365Z" fill="url(#paint1_linear_30_3054)"/>
</g>
<defs>
<linearGradient id="paint0_linear_30_3054" x1="7.39935" y1="1.45046" x2="7.2251" y2="14.175" gradientUnits="userSpaceOnUse">
<stop stop-color="#11EFE3"/>
<stop offset="0.33" stop-color="#15E8E2"/>
<stop offset="0.74" stop-color="#1FD3E0"/>
<stop offset="1" stop-color="#21CFE0"/>
</linearGradient>
<linearGradient id="paint1_linear_30_3054" x1="9.32854" y1="17.8451" x2="13.0005" y2="4.5639" gradientUnits="userSpaceOnUse">
<stop stop-color="#0048E5"/>
<stop offset="0.64" stop-color="#625AF5"/>
<stop offset="1" stop-color="#8A62FC"/>
</linearGradient>
<clipPath id="clip0_30_3054">
<rect width="17" height="17" fill="white" transform="translate(0 0.5)"/>
</clipPath>
</defs>
</svg>
