<svg width="5" height="5" viewBox="0 0 5 5" fill="none" xmlns="http://www.w3.org/2000/svg">
<path d="M2.75346 4.2642C2.38107 4.2642 2.04099 4.17341 1.73322 3.99183C1.42546 3.80717 1.17924 3.56096 0.994585 3.2532C0.813003 2.94543 0.722212 2.60535 0.722212 2.23295C0.722212 1.85748 0.813003 1.5174 0.994585 1.21271C1.17924 0.904948 1.42546 0.660274 1.73322 0.478693C2.04099 0.294034 2.38107 0.201704 2.75346 0.201704C3.12894 0.201704 3.46902 0.294034 3.7737 0.478693C4.08147 0.660274 4.32614 0.904948 4.50772 1.21271C4.69238 1.5174 4.78471 1.85748 4.78471 2.23295C4.78471 2.60535 4.69238 2.94543 4.50772 3.2532C4.32614 3.56096 4.08147 3.80717 3.7737 3.99183C3.46902 4.17341 3.12894 4.2642 2.75346 4.2642Z" fill="#687178"/>
</svg>
