<svg width="68" height="68" viewBox="0 0 68 68" fill="none" xmlns="http://www.w3.org/2000/svg">
<path fill-rule="evenodd" clip-rule="evenodd" d="M51.723 0.141113C61.5104 0.141113 67.859 6.48966 67.859 16.277V51.723C67.859 61.5104 61.5104 67.859 51.723 67.859H16.277C6.48966 67.859 0.141113 61.5104 0.141113 51.723V16.277C0.141113 6.48966 6.48966 0.141113 16.277 0.141113H51.723Z" fill="#0061FF"/>
<path fill-rule="evenodd" clip-rule="evenodd" d="M4.63853 4.63853C1.8586 7.41847 0.282158 11.4144 0.282158 16.277V51.723C0.282158 56.5856 1.8586 60.5815 4.63853 63.3615C7.41847 66.1414 11.4144 67.7178 16.277 67.7178H51.723C56.5856 67.7178 60.5815 66.1414 63.3615 63.3615C66.1414 60.5815 67.7178 56.5856 67.7178 51.723V16.277C67.7178 11.4144 66.1414 7.41847 63.3615 4.63853C60.5815 1.8586 56.5856 0.282158 51.723 0.282158H16.277C11.4144 0.282158 7.41847 1.8586 4.63853 4.63853ZM4.43902 4.43902C7.2802 1.59783 11.3522 0 16.277 0H51.723C56.6478 0 60.7198 1.59783 63.561 4.43902C66.4022 7.2802 68 11.3522 68 16.277V51.723C68 56.6478 66.4022 60.7198 63.561 63.561C60.7198 66.4022 56.6478 68 51.723 68H16.277C11.3522 68 7.2802 66.4022 4.43902 63.561C1.59783 60.7198 0 56.6478 0 51.723V16.277C0 11.3522 1.59783 7.2802 4.43902 4.43902Z" fill="#A4A4A4"/>
<path d="M34.0741 20.9854L20.7202 29.5042L34.0741 38.023L20.7202 46.5418L7.3667 37.977L20.7202 29.4582L7.3667 20.9854L20.7202 12.4667L34.0741 20.9854ZM20.6514 49.2812L34.0049 40.7624L47.3584 49.2812L34.0049 57.8L20.6514 49.2812ZM34.0741 37.9766L47.4276 29.4578L34.0741 20.985L47.3588 12.4663L60.7127 20.985L47.3588 29.5038L60.7127 38.0226L47.3588 46.5414L34.0741 37.9766Z" fill="white"/>
</svg>
