<svg width="68" height="68" viewBox="0 0 68 68" fill="none" xmlns="http://www.w3.org/2000/svg">
<path fill-rule="evenodd" clip-rule="evenodd" d="M51.7968 0C61.625 0 68 6.375 68 16.2032V51.7968C68 61.625 61.625 68 51.7968 68H16.2032C6.375 68 0 61.625 0 51.7968V16.2032C0 6.375 6.375 0 16.2032 0H51.7968Z" fill="url(#paint0_linear_918_14141)"/>
<path fill-rule="evenodd" clip-rule="evenodd" d="M9.22979 35.0684C9.00942 35.2888 9.01406 35.6507 9.23308 35.8697L12.9618 39.5984C13.184 39.8206 13.6208 40.0007 13.9291 40.0007H17.3324C17.6445 40.0007 18.0753 39.8207 18.2956 39.5978L40.8988 16.7256C41.3398 16.2792 41.3318 15.5671 40.8772 15.1314L35.3075 9.79369C35.081 9.57666 34.717 9.58114 34.4984 9.79976L9.22979 35.0684ZM18.8593 44.7021C18.641 44.9223 18.6474 45.2841 18.8664 45.503L22.5951 49.2318C22.8173 49.454 23.2542 49.634 23.5624 49.634H26.9658C27.2778 49.634 27.7058 49.4525 27.9229 49.2276L40.5954 36.0913C41.0285 35.6424 41.0247 34.9216 40.5832 34.4779L35.1802 29.0475C34.9575 28.8238 34.5995 28.8216 34.3819 29.0411L18.8593 44.7021ZM28.8268 54.0516C28.6067 54.2737 28.6117 54.6372 28.8307 54.8562L32.5594 58.5848C32.7816 58.807 33.2184 58.9872 33.5267 58.9872H36.93C37.2421 58.9872 37.6674 58.8019 37.8808 58.5724L40.9853 55.2325C41.4116 54.774 41.4002 54.0419 40.9563 53.5937L35.5131 48.0983C35.2947 47.8778 34.9387 47.8798 34.7193 48.1014L28.8268 54.0516Z" fill="white"/>
<defs>
<linearGradient id="paint0_linear_918_14141" x1="0" y1="0" x2="0" y2="68" gradientUnits="userSpaceOnUse">
<stop stop-color="#59D839"/>
<stop offset="1" stop-color="#36B33C"/>
</linearGradient>
</defs>
</svg>
