<svg width="20" height="20" viewBox="0 0 20 20" fill="none" xmlns="http://www.w3.org/2000/svg">
<path d="M15.8346 9.58594V16.2526H4.16797V9.58594" stroke="#6B7280" stroke-width="1.5" stroke-linecap="round" stroke-linejoin="round"/>
<path d="M17.5 6.25H2.5V9.58333H17.5V6.25Z" stroke="#6B7280" stroke-width="1.5" stroke-linecap="round" stroke-linejoin="round"/>
<path d="M10 16.25V6.25" stroke="#6B7280" stroke-width="1.5" stroke-linecap="round" stroke-linejoin="round"/>
<path d="M10 6.2526H6.78571C6.31211 6.2526 5.85791 6.03311 5.52302 5.64241C5.18814 5.25171 5 4.72181 5 4.16927C5 3.61674 5.18814 3.08683 5.52302 2.69613C5.85791 2.30543 6.31211 2.08594 6.78571 2.08594C9.28571 2.08594 10 6.2526 10 6.2526Z" stroke="#6B7280" stroke-width="1.5" stroke-linecap="round" stroke-linejoin="round"/>
<path d="M10 6.2526H13.2143C13.6879 6.2526 14.1421 6.03311 14.477 5.64241C14.8119 5.25171 15 4.72181 15 4.16927C15 3.61674 14.8119 3.08683 14.477 2.69613C14.1421 2.30543 13.6879 2.08594 13.2143 2.08594C10.7143 2.08594 10 6.2526 10 6.2526Z" stroke="#6B7280" stroke-width="1.5" stroke-linecap="round" stroke-linejoin="round"/>
</svg>
