<svg width="68" height="68" viewBox="0 0 68 68" fill="none" xmlns="http://www.w3.org/2000/svg">
<path fill-rule="evenodd" clip-rule="evenodd" d="M51.723 0.141113C61.5104 0.141113 67.859 6.48966 67.859 16.277V51.723C67.859 61.5104 61.5104 67.859 51.723 67.859H16.277C6.48966 67.859 0.141113 61.5104 0.141113 51.723V16.277C0.141113 6.48966 6.48966 0.141113 16.277 0.141113H51.723Z" fill="white"/>
<path fill-rule="evenodd" clip-rule="evenodd" d="M51.723 0.141113C61.5104 0.141113 67.859 6.48966 67.859 16.277V51.723C67.859 61.5104 61.5104 67.859 51.723 67.859H16.277C6.48966 67.859 0.141113 61.5104 0.141113 51.723V16.277C0.141113 6.48966 6.48966 0.141113 16.277 0.141113H51.723Z" fill="white"/>
<path fill-rule="evenodd" clip-rule="evenodd" d="M27.5248 12.6618C22.052 14.5379 17.3886 18.6408 14.7911 23.8331C13.885 25.6244 13.2326 27.5247 12.8339 29.4975C11.8433 34.3872 12.5319 39.6037 14.779 44.0578C16.2409 46.9625 18.343 49.5526 20.8801 51.5739C23.2842 53.4862 26.075 54.9144 29.047 55.7011C32.7922 56.7057 36.7791 56.6814 40.5485 55.8221C43.9553 55.0354 47.1811 53.4015 49.7544 51.0292C52.4727 48.5239 54.4178 45.2318 55.4447 41.6855C56.5681 37.8246 56.7131 33.6973 56.0128 29.7275C48.9691 29.7275 41.9137 29.7275 34.8702 29.7275C34.8702 32.6564 34.8702 35.5854 34.8702 38.5144C38.9537 38.5144 43.0372 38.5144 47.1207 38.5144C46.6495 41.3224 44.9823 43.8883 42.6264 45.4738C41.1404 46.4784 39.437 47.1198 37.6731 47.4346C35.9092 47.7371 34.0729 47.7734 32.309 47.4224C30.5089 47.0593 28.8054 46.3089 27.3073 45.256C24.9152 43.5736 23.091 41.1167 22.1607 38.345C21.2063 35.5249 21.1942 32.3901 22.1607 29.5822C22.8373 27.5973 23.9487 25.7696 25.4227 24.2689C27.2348 22.405 29.5907 21.0736 32.1399 20.529C34.3145 20.069 36.6099 20.1538 38.7363 20.7952C40.5485 21.3399 42.2157 22.3444 43.5809 23.6516C44.9581 22.2719 46.3354 20.892 47.7127 19.5123C48.4375 18.774 49.1987 18.0599 49.8994 17.2974C47.8093 15.3609 45.3447 13.7995 42.6627 12.807C37.8302 11.0158 32.3935 10.9795 27.5248 12.6618Z" fill="white"/>
<path fill-rule="evenodd" clip-rule="evenodd" d="M27.5247 12.6619C32.3814 10.9795 37.8301 11.0158 42.6626 12.795C45.3446 13.7874 47.7971 15.3367 49.8993 17.2853C49.1986 18.0478 48.4375 18.7619 47.7125 19.5002C46.3353 20.88 44.958 22.2597 43.5807 23.6395C42.2156 22.3324 40.5483 21.3399 38.7362 20.7831C36.6099 20.1417 34.3144 20.0448 32.1398 20.5168C29.6027 21.0615 27.2469 22.3929 25.4225 24.2568C23.9487 25.7455 22.8371 27.5852 22.1606 29.5701C19.7081 27.6578 17.2556 25.7576 14.791 23.8453C17.3885 18.6408 22.0519 14.5379 27.5247 12.6619Z" fill="#EA4335"/>
<path fill-rule="evenodd" clip-rule="evenodd" d="M12.846 29.4855C13.2447 27.5248 13.8971 25.6124 14.8032 23.8212C17.2556 25.7335 19.7082 27.6337 22.1728 29.546C21.2062 32.3661 21.2062 35.5008 22.1728 38.3088C19.7202 40.2211 17.2678 42.1334 14.8153 44.0336C12.544 39.5917 11.8553 34.3752 12.846 29.4855Z" fill="#FBBC05"/>
<path fill-rule="evenodd" clip-rule="evenodd" d="M34.8702 29.7153C41.9136 29.7153 48.9691 29.7153 56.0128 29.7153C56.7131 33.6731 56.5562 37.8004 55.4447 41.6734C54.4178 45.2196 52.4727 48.5117 49.7544 51.0171C47.3744 49.1653 44.9943 47.3135 42.6143 45.4617C44.9702 43.8762 46.6374 41.3103 47.1086 38.5023C43.0251 38.5023 38.9416 38.5023 34.8582 38.5023C34.8702 35.5733 34.8702 32.6443 34.8702 29.7153Z" fill="#4285F4"/>
<path fill-rule="evenodd" clip-rule="evenodd" d="M14.791 44.0457C17.2435 42.1455 19.696 40.2332 22.1485 38.3208C23.0909 41.0925 24.903 43.5494 27.2952 45.2318C28.7933 46.2848 30.5088 47.0352 32.2968 47.3983C34.0607 47.7614 35.885 47.713 37.6609 47.4104C39.4248 47.0957 41.1283 46.4543 42.6142 45.4497C44.9943 47.3015 47.3743 49.1533 49.7543 51.0051C47.181 53.3894 43.9553 55.0112 40.5483 55.798C36.779 56.6572 32.7922 56.6815 29.047 55.677C26.075 54.8903 23.2842 53.4742 20.88 51.5497C18.355 49.5406 16.2529 46.9505 14.791 44.0457Z" fill="#34A853"/>
</svg>
