<svg width="106" height="77" viewBox="0 0 106 77" fill="none" xmlns="http://www.w3.org/2000/svg">
<rect width="106" height="89" rx="4" fill="white"/>
<path d="M57.5625 22.5625V21.75C57.5625 21.1914 57.4102 20.6328 57.207 20.125H57.1562C56.0898 20.125 55.1758 19.668 54.5664 18.9062C53.8555 20.125 52.5352 20.9375 51.0625 20.9375H49.4883C49.4375 21.2422 49.4375 21.4961 49.4375 21.75V22.5625C49.4375 24.8477 51.2148 26.625 53.5 26.625C55.7344 26.625 57.5625 24.8477 57.5625 22.5625ZM53.5 15.25C57.0547 15.25 60 18.1953 60 21.75V22.5625C60 26.168 57.0547 29.0625 53.5 29.0625C49.8945 29.0625 47 26.168 47 22.5625V21.75C47 18.1953 49.8945 15.25 53.5 15.25ZM55.582 41.25H51.3672H43.6484C42.7852 41.25 42.125 40.5898 42.125 39.7266C42.125 35.6133 45.1211 32.2109 49.0312 31.6016L51.0117 39.8281L52.7383 33.5312L51.7734 31.957C51.4688 31.3984 51.8242 30.6875 52.4844 30.6875H53.5H54.4648C55.125 30.6875 55.4805 31.3984 55.1758 31.957L54.2109 33.5312L55.9375 39.8281L57.918 31.6016C61.8281 32.2109 64.875 35.6133 64.875 39.7266C64.875 40.5898 64.1641 41.25 63.3008 41.25H55.582Z" fill="#AC02C8"/>
<path d="M34.5312 54.9766L28.2812 59.9766C27.8125 60.3672 27.1875 60.3672 26.7188 60.0156L22.5 56.8516L17.0312 61.2266C16.4844 61.6562 15.7031 61.5781 15.2734 61.0312C14.8438 60.5234 14.9219 59.7031 15.4688 59.2734L21.7188 54.2734C22.1484 53.9219 22.7734 53.9219 23.2422 54.2734L27.4609 57.4375L32.9688 53.0234C33.4766 52.5938 34.2969 52.7109 34.7266 53.2188C35.1562 53.7656 35.0391 54.5469 34.5312 54.9766ZM21.25 61.5C21.25 60.8359 21.7969 60.25 22.5 60.25C23.1641 60.25 23.75 60.8359 23.75 61.5V69C23.75 69.7031 23.1641 70.25 22.5 70.25C21.7969 70.25 21.25 69.7031 21.25 69V61.5ZM16.25 65.25C16.25 64.5859 16.7969 64 17.5 64C18.1641 64 18.75 64.5859 18.75 65.25V69C18.75 69.7031 18.1641 70.25 17.5 70.25C16.7969 70.25 16.25 69.7031 16.25 69V65.25ZM27.5 62.75C28.1641 62.75 28.75 63.3359 28.75 64V69C28.75 69.7031 28.1641 70.25 27.5 70.25C26.7969 70.25 26.25 69.7031 26.25 69V64C26.25 63.3359 26.7969 62.75 27.5 62.75ZM31.25 61.5C31.25 60.8359 31.7969 60.25 32.5 60.25C33.1641 60.25 33.75 60.8359 33.75 61.5V69C33.75 69.7031 33.1641 70.25 32.5 70.25C31.7969 70.25 31.25 69.7031 31.25 69V61.5Z" fill="#AC02C8"/>
<rect x="49" y="54" width="30" height="3" rx="1.5" fill="#DDDDDD"/>
<rect x="49" y="60" width="43" height="3" rx="1.5" fill="#DDDDDD"/>
<rect x="49" y="66" width="35" height="3" rx="1.5" fill="#DDDDDD"/>
<rect x="97" y="4" width="3" height="2.92593" rx="1.46296" fill="#AC02C8"/>
<rect x="91" y="4" width="3" height="2.92593" rx="1.46296" fill="#AC02C8"/>
<rect x="85" y="4" width="3" height="2.92593" rx="1.46296" fill="#AC02C8"/>
</svg>
