<svg width="106" height="79" viewBox="0 0 106 79" fill="none" xmlns="http://www.w3.org/2000/svg">
<rect width="106" height="89" rx="4" fill="white"/>
<path d="M23 18.9766C23 17.5547 24.1484 16.3516 25.625 16.3516H27.375C28.7969 16.3516 30 17.5547 30 18.9766V38.2266C30 39.7031 28.7969 40.8516 27.375 40.8516H25.625C24.1484 40.8516 23 39.7031 23 38.2266V18.9766ZM14.25 29.4766C14.25 28.0547 15.3984 26.8516 16.875 26.8516H18.625C20.0469 26.8516 21.25 28.0547 21.25 29.4766V38.2266C21.25 39.7031 20.0469 40.8516 18.625 40.8516H16.875C15.3984 40.8516 14.25 39.7031 14.25 38.2266V29.4766ZM34.375 19.8516H36.125C37.5469 19.8516 38.75 21.0547 38.75 22.4766V38.2266C38.75 39.7031 37.5469 40.8516 36.125 40.8516H34.375C32.8984 40.8516 31.75 39.7031 31.75 38.2266V22.4766C31.75 21.0547 32.8984 19.8516 34.375 19.8516Z" fill="#997BFF"/>
<path d="M76.875 61.7266V49.5312C76.875 49.0391 77.2578 48.6016 77.75 48.6016C84.4766 48.6016 90 54.125 90 60.8516C90 61.3438 89.5625 61.7266 89.0703 61.7266H76.875ZM62 63.4766C62 56.8594 66.9219 51.3906 73.3203 50.5156C73.8125 50.4062 74.25 50.8438 74.25 51.3359V64.3516L82.7812 72.9375C83.1641 73.3203 83.1094 73.9219 82.7266 74.1953C80.5391 75.7266 77.9141 76.6016 75.125 76.6016C67.8516 76.6016 62 70.75 62 63.4766ZM90.7656 64.3516C91.2578 64.3516 91.6953 64.7891 91.5859 65.2812C91.2031 68.3438 89.7266 71.0781 87.5391 73.1016C87.2109 73.375 86.7188 73.375 86.3906 73.0469L77.75 64.3516H90.7656Z" fill="#997BFF"/>
<rect x="52" y="23.1016" width="16" height="3" rx="1.5" fill="#DDDDDD"/>
<rect x="52" y="29.1016" width="35" height="3" rx="1.5" fill="#DDDDDD"/>
<rect x="52" y="35.1016" width="24" height="3" rx="1.5" fill="#DDDDDD"/>
<rect x="14" y="57.1016" width="16" height="3" rx="1.5" fill="#DDDDDD"/>
<rect x="14" y="63.1016" width="35" height="3" rx="1.5" fill="#DDDDDD"/>
<rect x="14" y="69.1016" width="24" height="3" rx="1.5" fill="#DDDDDD"/>
<rect x="97" y="4" width="3" height="2.92593" rx="1.46296" fill="#997BFF"/>
<rect x="91" y="4" width="3" height="2.92593" rx="1.46296" fill="#997BFF"/>
<rect x="85" y="4" width="3" height="2.92593" rx="1.46296" fill="#997BFF"/>
</svg>
