<svg width="20" height="20" viewBox="0 0 20 20" fill="none" xmlns="http://www.w3.org/2000/svg">
<path d="M10 16L16 10" stroke="#6B7280" stroke-width="1.5" stroke-linecap="round" stroke-linejoin="round"/>
<path d="M11.1339 9.36612C11.622 9.85427 11.622 10.6457 11.1339 11.1339C10.6457 11.622 9.85427 11.622 9.36612 11.1339C8.87796 10.6457 8.87796 9.85427 9.36612 9.36612C9.85427 8.87796 10.6457 8.87796 11.1339 9.36612Z" stroke="#6B7280" stroke-width="1.5" stroke-linecap="round" stroke-linejoin="round"/>
<path d="M17.1339 14.9521C17.622 15.4402 17.622 16.2317 17.1339 16.7198C16.6457 17.208 15.8543 17.208 15.3661 16.7198C14.878 16.2317 14.878 15.4402 15.3661 14.9521C15.8543 14.4639 16.6457 14.4639 17.1339 14.9521Z" stroke="#6B7280" stroke-width="1.5" stroke-linecap="round" stroke-linejoin="round"/>
<path d="M5.5 15.9976C3.65917 15.9976 2.5 14.8384 2.5 12.9976V5.99756C2.5 4.15673 3.9925 2.91406 5.83333 2.91406H14.1667C16.0075 2.91406 17.5 4.15673 17.5 5.99756" stroke="#6B7280" stroke-width="1.5" stroke-linecap="round" stroke-linejoin="round"/>
</svg>
