<svg width="18" height="19" viewBox="0 0 18 19" fill="none" xmlns="http://www.w3.org/2000/svg">
<path d="M15.4287 8.43813H14.0626V3.93813C14.0626 2.51782 12.9115 1.3667 11.4912 1.3667H6.50907C5.08876 1.3667 3.93764 2.51782 3.93764 3.93813V8.43813H2.57157C2.21599 8.43813 1.92871 8.72541 1.92871 9.08099V16.7953C1.92871 17.1509 2.21599 17.4381 2.57157 17.4381H15.4287C15.7843 17.4381 16.0716 17.1509 16.0716 16.7953V9.08099C16.0716 8.72541 15.7843 8.43813 15.4287 8.43813ZM5.38407 3.93813C5.38407 3.31737 5.88831 2.81313 6.50907 2.81313H11.4912C12.112 2.81313 12.6162 3.31737 12.6162 3.93813V8.43813H5.38407V3.93813ZM14.6251 15.9917H3.37514V9.88456H14.6251V15.9917ZM8.43764 13.1993V14.264C8.43764 14.3524 8.50996 14.4247 8.59835 14.4247H9.40193C9.49032 14.4247 9.56264 14.3524 9.56264 14.264V13.1993C9.72847 13.0802 9.85225 12.9116 9.91615 12.7177C9.98006 12.5239 9.98079 12.3147 9.91826 12.1204C9.85572 11.926 9.73314 11.7566 9.56815 11.6363C9.40316 11.5161 9.20428 11.4513 9.00014 11.4513C8.796 11.4513 8.59712 11.5161 8.43213 11.6363C8.26714 11.7566 8.14456 11.926 8.08202 12.1204C8.01948 12.3147 8.02022 12.5239 8.08413 12.7177C8.14803 12.9116 8.27181 13.0802 8.43764 13.1993Z" fill="white"/>
</svg>
