<svg width="53" height="54" viewBox="0 0 53 54" fill="none" xmlns="http://www.w3.org/2000/svg">
<rect width="53" height="54" rx="19" fill="#F7FAFF"/>
<g clip-path="url(#clip0_30_5154)">
<path fill-rule="evenodd" clip-rule="evenodd" d="M13.0879 34.9003C12.7776 35.4269 12.4292 36.038 12.1332 36.5248C11.8683 36.9907 12.0105 37.5915 12.453 37.876L18.6585 41.8502C18.8763 41.9902 19.139 42.0332 19.3876 41.9697C19.6362 41.9062 19.8499 41.7414 19.9807 41.5124C20.2289 41.0802 20.5487 40.5189 20.8972 39.9178C23.3555 35.6952 25.8281 36.2118 30.2865 38.4274L36.4394 41.4727C36.6724 41.5881 36.9404 41.6004 37.1823 41.5068C37.4243 41.4133 37.6194 41.2217 37.7234 40.9759L40.6782 34.0211C40.8869 33.5243 40.6745 32.9451 40.2008 32.7195C38.9025 32.0836 36.3201 30.8169 33.9954 29.6494C25.6324 25.4219 18.5248 25.6951 13.0879 34.9003Z" fill="url(#paint0_linear_30_5154)"/>
<path fill-rule="evenodd" clip-rule="evenodd" d="M40.9123 19.1194C41.2225 18.5928 41.571 17.9818 41.8669 17.4949C42.1318 17.029 41.9896 16.4282 41.5471 16.1437L35.3417 12.1695C35.1221 12.0156 34.8509 11.9635 34.593 12.0256C34.3351 12.0878 34.1135 12.2586 33.9813 12.4974C33.7331 12.9296 33.4132 13.4909 33.0648 14.092C30.6065 18.3146 28.1339 17.798 23.6755 15.5823L17.5417 12.552C17.3086 12.4366 17.0406 12.4242 16.7987 12.5178C16.5568 12.6114 16.3616 12.803 16.2576 13.0488L13.3029 20.0036C13.0941 20.5004 13.3065 21.0795 13.7802 21.3052C15.0786 21.9411 17.661 23.2078 19.9857 24.3753C28.3678 28.5978 35.4754 28.3147 40.9123 19.1194Z" fill="url(#paint1_linear_30_5154)"/>
</g>
<defs>
<linearGradient id="paint0_linear_30_5154" x1="40.5111" y1="43.9019" x2="33.0832" y2="27.5278" gradientUnits="userSpaceOnUse">
<stop offset="0.18" stop-color="#0052CC"/>
<stop offset="1" stop-color="#2684FF"/>
</linearGradient>
<linearGradient id="paint1_linear_30_5154" x1="13.489" y1="10.1128" x2="20.9286" y2="26.4944" gradientUnits="userSpaceOnUse">
<stop offset="0.18" stop-color="#0052CC"/>
<stop offset="1" stop-color="#2684FF"/>
</linearGradient>
<clipPath id="clip0_30_5154">
<rect width="30" height="30" fill="white" transform="translate(12 12)"/>
</clipPath>
</defs>
</svg>
