<svg width="106" height="85" viewBox="0 0 106 85" fill="none" xmlns="http://www.w3.org/2000/svg">
<rect width="106" height="84" rx="4" fill="white"/>
<rect x="97" y="3.89844" width="3" height="2.92593" rx="1.46296" fill="#D90101"/>
<rect x="91" y="3.89844" width="3" height="2.92593" rx="1.46296" fill="#D90101"/>
<rect x="85" y="3.89844" width="3" height="2.92593" rx="1.46296" fill="#D90101"/>
<path d="M24.25 19.5V22.5H28.75V19.5C28.75 18.2812 27.7188 17.25 26.5 17.25C25.2344 17.25 24.25 18.2812 24.25 19.5ZM22 22.5V19.5C22 17.0156 24.0156 15 26.5 15C28.9844 15 31 17.0156 31 19.5V22.5H34C35.6406 22.5 37 23.8594 37 25.5H27.25C25.1406 25.5 23.5 27.1875 23.5 29.25V36.75C23.5 37.0312 23.5 37.2656 23.5469 37.5H19C17.3125 37.5 16 36.1875 16 34.5V25.5C16 23.8594 17.3125 22.5 19 22.5H22ZM28 27H40C41.6406 27 43 28.3594 43 30V36C43 37.6875 41.6406 39 40 39H28C26.3125 39 25 37.6875 25 36V30C25 28.3594 26.3125 27 28 27ZM31 30.75C31 30.375 30.625 30 30.25 30C29.8281 30 29.5 30.375 29.5 30.75V31.5C29.5 33.9844 31.5156 36 34 36C36.4844 36 38.5 33.9844 38.5 31.5V30.75C38.5 30.375 38.125 30 37.75 30C37.3281 30 37 30.375 37 30.75V31.5C37 33.1875 35.6406 34.5 34 34.5C32.3125 34.5 31 33.1875 31 31.5V30.75Z" fill="#D90101"/>
<path d="M29 56.5469H93V66.3879H29V56.5469Z" fill="white" stroke="#DDDDDD" stroke-width="2"/>
<path d="M17 50H90C91.6569 50 93 51.3431 93 53V57H14V53C14 51.3431 15.3431 50 17 50Z" fill="white" stroke="#DDDDDD" stroke-width="2"/>
<path d="M14 57H29V84H17C15.3431 84 14 82.6569 14 81V57Z" fill="white" stroke="#DDDDDD" stroke-width="2"/>
<path d="M29 66H93V75.841H29V66Z" fill="white" stroke="#DDDDDD" stroke-width="2"/>
<rect x="56" y="21" width="24" height="3" rx="1.5" fill="#DDDDDD"/>
<rect x="56" y="28" width="36" height="3" rx="1.5" fill="#DDDDDD"/>
<rect x="56" y="34" width="19" height="3" rx="1.5" fill="#DDDDDD"/>
</svg>
