<svg width="34" height="32" viewBox="0 0 34 32" fill="none" xmlns="http://www.w3.org/2000/svg">
<path fill-rule="evenodd" clip-rule="evenodd" d="M28.6879 0C29.0107 0 29.316 0.146721 29.5176 0.398762L33.7676 5.71127C34.078 6.0993 34.078 6.6507 33.7676 7.03873L29.5176 12.3512C29.316 12.6033 29.0107 12.75 28.6879 12.75C28.3651 12.75 28.0599 12.6033 27.8582 12.3512L23.6082 7.03873C23.2979 6.6507 23.2979 6.0993 23.6082 5.71127L27.8582 0.398762C28.0599 0.146721 28.3651 0 28.6879 0ZM25.7986 6.375L28.6879 9.98667L31.5773 6.375L28.6879 2.76333L25.7986 6.375ZM11.624 6.23142C12.103 5.32773 13.3978 5.32774 13.8769 6.23142L17.5859 13.2271L24.5815 16.936C25.4852 17.4151 25.4852 18.7099 24.5815 19.189L17.5859 22.8979L13.8769 29.8935C13.3978 30.7973 12.103 30.7973 11.624 29.8935L7.915 22.8979L0.919344 19.189C0.0156521 18.7099 0.0156576 17.4151 0.919344 16.936L7.915 13.2271L11.624 6.23142ZM12.7504 8.64327L9.67021 14.4531C9.5507 14.6784 9.36635 14.8628 9.14096 14.9823L3.33119 18.0625L9.14096 21.1427C9.36635 21.2622 9.5507 21.4466 9.67021 21.6719L12.7504 27.4818L15.8306 21.6719C15.9501 21.4466 16.1345 21.2622 16.3598 21.1427L22.1697 18.0625L16.3598 14.9823C16.1345 14.8628 15.9501 14.6784 15.8306 14.4531L12.7504 8.64327ZM29.7504 22.3125C29.7504 21.7257 29.2747 21.25 28.6879 21.25C28.1011 21.25 27.6254 21.7257 27.6254 22.3125V25.5H24.4379C23.8511 25.5 23.3754 25.9757 23.3754 26.5625C23.3754 27.1493 23.8511 27.625 24.4379 27.625H27.6254V30.8125C27.6254 31.3993 28.1011 31.875 28.6879 31.875C29.2747 31.875 29.7504 31.3993 29.7504 30.8125V27.625H32.9379C33.5247 27.625 34.0004 27.1493 34.0004 26.5625C34.0004 25.9757 33.5247 25.5 32.9379 25.5H29.7504V22.3125Z" fill="#2490EF"/>
</svg>
