<svg width="14" height="13" viewBox="0 0 14 13" fill="none" xmlns="http://www.w3.org/2000/svg">
<path d="M5.38838 1.94495L6.75519 4.94141L9.75166 6.30822C9.90936 6.38707 10.0145 6.54478 10.0145 6.70249C10.0145 6.8602 9.90936 7.01791 9.75166 7.07048L6.75519 8.46357L5.38838 11.46C5.30953 11.6177 5.15182 11.7229 4.99411 11.7229C4.8364 11.7229 4.67869 11.6177 4.62612 11.46L3.23303 8.46357L0.236563 7.09676C0.0788544 7.01791 0 6.8602 0 6.70249C0 6.54478 0.0788544 6.38707 0.236563 6.30822L3.23303 4.94141L4.62612 1.94495C4.67869 1.78724 4.8364 1.6821 4.99411 1.6821C5.15182 1.6821 5.30953 1.78724 5.38838 1.94495Z" fill="#2490EF"/>
<path fill-rule="evenodd" clip-rule="evenodd" d="M11.0754 9.15527e-05C11.2032 9.15527e-05 11.324 0.0581662 11.4039 0.157929L13.0861 2.26071C13.2089 2.41431 13.2089 2.63256 13.0861 2.78615L11.4039 4.88894C11.324 4.98869 11.2032 5.04677 11.0754 5.04677C10.9477 5.04677 10.8268 4.98869 10.747 4.88894L9.0648 2.78615C8.94196 2.63256 8.94196 2.41431 9.0648 2.26071L10.747 0.157929C10.8268 0.0581662 10.9477 9.15527e-05 11.0754 9.15527e-05ZM9.93178 2.52343L11.0754 3.953L12.2191 2.52343L11.0754 1.09387L9.93178 2.52343ZM11.496 8.83178C11.496 8.59951 11.3077 8.41122 11.0754 8.41122C10.8432 8.41122 10.6549 8.59951 10.6549 8.83178V10.0935H9.39321C9.16094 10.0935 8.97266 10.2817 8.97266 10.514C8.97266 10.7463 9.16094 10.9346 9.39321 10.9346H10.6549V12.1962C10.6549 12.4285 10.8432 12.6168 11.0754 12.6168C11.3077 12.6168 11.496 12.4285 11.496 12.1962V10.9346H12.7577C12.9899 10.9346 13.1782 10.7463 13.1782 10.514C13.1782 10.2817 12.9899 10.0935 12.7577 10.0935H11.496V8.83178Z" fill="#2490EF"/>
</svg>
