<svg width="106" height="58" viewBox="0 0 106 58" fill="none" xmlns="http://www.w3.org/2000/svg">
<rect width="106" height="58" rx="4" fill="white"/>
<rect x="97" y="3.89844" width="3" height="2.92593" rx="1.46296" fill="#3996FD"/>
<rect x="91" y="3.89844" width="3" height="2.92593" rx="1.46296" fill="#3996FD"/>
<rect x="85" y="3.89844" width="3" height="2.92593" rx="1.46296" fill="#3996FD"/>
<rect x="47" y="22" width="47" height="3" rx="1.5" fill="#DDDDDD"/>
<rect x="47" y="30" width="47" height="3" rx="1.5" fill="#DDDDDD"/>
<rect x="47" y="37" width="47" height="3" rx="1.5" fill="#DDDDDD"/>
<rect x="47" y="22" width="24" height="3" rx="1.5" fill="#3996FD"/>
<rect x="47" y="30" width="36" height="3" rx="1.5" fill="#3996FD"/>
<rect x="47" y="37" width="19" height="3" rx="1.5" fill="#3996FD"/>
<path d="M16.5 17.5H25.25V24.5C25.25 25.4844 26.0156 26.25 27 26.25H34V42C34 43.9688 32.4141 45.5 30.5 45.5H16.5C14.5312 45.5 13 43.9688 13 42V21C13 19.0859 14.5312 17.5 16.5 17.5ZM27 17.5L34 24.5H27V17.5ZM29.1875 35V35.0547C29.625 35.0547 30.0625 34.6172 30.0078 34.1797C29.5703 31.2266 27.2734 28.9297 24.375 28.5469C23.8828 28.4375 23.5 28.875 23.5 29.3125V34.125C23.5 34.6172 23.8828 35 24.375 35H29.1875ZM21.75 30.0781C21.75 29.5312 21.2031 29.1484 20.7109 29.3125C18.25 30.2969 16.5 32.6484 16.5 35.4375C16.5 39.1016 19.3984 42 23.0625 42C25.8516 42 28.2031 40.25 29.1875 37.7891C29.3516 37.2969 28.9688 36.75 28.4219 36.75H22.625C22.1328 36.75 21.75 36.3672 21.75 35.875V30.0781Z" fill="#3996FD"/>
</svg>
