<svg width="68" height="68" viewBox="0 0 68 68" fill="none" xmlns="http://www.w3.org/2000/svg">
<path fill-rule="evenodd" clip-rule="evenodd" d="M51.7968 0C61.625 0 68 6.375 68 16.2032V51.7968C68 61.625 61.625 68 51.7968 68H16.2032C6.375 68 0 61.625 0 51.7968V16.2032C0 6.375 6.375 0 16.2032 0H51.7968Z" fill="black"/>
<path fill-rule="evenodd" clip-rule="evenodd" d="M27.0204 53.448C29.9466 53.448 32.3187 51.0759 32.3187 48.1497C32.3187 45.2235 29.9466 42.8514 27.0204 42.8514C24.0942 42.8514 21.722 45.2235 21.722 48.1497C21.722 51.0759 24.0942 53.448 27.0204 53.448Z" fill="white"/>
<path fill-rule="evenodd" clip-rule="evenodd" d="M27.0204 39.387C29.9466 39.387 32.3187 37.0149 32.3187 34.0887C32.3187 31.1625 29.9466 28.7904 27.0204 28.7904C24.0942 28.7904 21.722 31.1625 21.722 34.0887C21.722 37.0149 24.0942 39.387 27.0204 39.387Z" fill="white"/>
<path fill-rule="evenodd" clip-rule="evenodd" d="M27.0204 25.2964C29.9466 25.2964 32.3187 22.9243 32.3187 19.9981C32.3187 17.0719 29.9466 14.6998 27.0204 14.6998C24.0942 14.6998 21.722 17.0719 21.722 19.9981C21.722 22.9243 24.0942 25.2964 27.0204 25.2964Z" fill="#13CFA6"/>
<path fill-rule="evenodd" clip-rule="evenodd" d="M41.1112 25.2964C44.0374 25.2964 46.4095 22.9243 46.4095 19.9981C46.4095 17.0719 44.0374 14.6998 41.1112 14.6998C38.185 14.6998 35.8129 17.0719 35.8129 19.9981C35.8129 22.9243 38.185 25.2964 41.1112 25.2964Z" fill="#FF0D59"/>
</svg>
