<svg width="106" height="58" viewBox="0 0 106 58" fill="none" xmlns="http://www.w3.org/2000/svg">
<rect width="106" height="58" rx="4" fill="white"/>
<rect x="97" y="3.89844" width="3" height="2.92593" rx="1.46296" fill="#B90D22"/>
<rect x="91" y="3.89844" width="3" height="2.92593" rx="1.46296" fill="#B90D22"/>
<rect x="85" y="3.89844" width="3" height="2.92593" rx="1.46296" fill="#B90D22"/>
<rect x="14" y="23" width="24" height="3" rx="1.5" fill="#DDDDDD"/>
<rect x="14" y="31" width="36" height="3" rx="1.5" fill="#DDDDDD"/>
<rect x="14" y="38" width="19" height="3" rx="1.5" fill="#DDDDDD"/>
<path d="M70.625 23.125C70.625 24.5781 69.4062 25.75 68 25.75C66.5469 25.75 65.375 24.5781 65.375 23.125C65.375 21.7188 66.5469 20.5 68 20.5C69.4062 20.5 70.625 21.7188 70.625 23.125ZM65 30.5312C64.5312 31.0469 64.25 31.75 64.25 32.5C64.25 33.2969 64.5312 34 65 34.5156V30.5312ZM71.75 28.2344C70.3438 29.4531 69.5 31.2812 69.5 33.25C69.5 34.8906 70.0625 36.3438 71 37.5156V38.5C71 39.3438 70.2969 40 69.5 40H66.5C65.6562 40 65 39.3438 65 38.5V37.2812C63.2188 36.4375 62 34.6094 62 32.5C62 29.6406 64.3438 27.25 67.25 27.25H68.75C69.875 27.25 70.9062 27.625 71.75 28.2344ZM83 38.5V37.5156C83.9375 36.3438 84.5 34.8906 84.5 33.25C84.5 31.2812 83.6094 29.4531 82.2031 28.2344C83.0469 27.625 84.125 27.25 85.25 27.25H86.75C89.6094 27.25 92 29.6406 92 32.5C92 34.6094 90.7344 36.4375 89 37.2812V38.5C89 39.3438 88.2969 40 87.5 40H84.5C83.6562 40 83 39.3438 83 38.5ZM88.625 23.125C88.625 24.5781 87.4062 25.75 86 25.75C84.5469 25.75 83.375 24.5781 83.375 23.125C83.375 21.7188 84.5469 20.5 86 20.5C87.4062 20.5 88.625 21.7188 88.625 23.125ZM89 30.5312V34.5156C89.4688 34 89.75 33.2969 89.75 32.5469C89.75 31.75 89.4688 31.0469 89 30.5312ZM77 26.5C75.3125 26.5 74 25.1875 74 23.5C74 21.8594 75.3125 20.5 77 20.5C78.6406 20.5 80 21.8594 80 23.5C80 25.1875 78.6406 26.5 77 26.5ZM73.25 33.25C73.25 34.0469 73.5312 34.7031 74 35.2656V31.2812C73.5312 31.7969 73.25 32.5 73.25 33.25ZM80 31.2812V35.2656C80.4688 34.75 80.75 34.0469 80.75 33.2969C80.75 32.5 80.4688 31.7969 80 31.2812ZM83 33.25C83 35.3594 81.7344 37.1875 80 38.0312V40C80 40.8438 79.2969 41.5 78.5 41.5H75.5C74.6562 41.5 74 40.8438 74 40V38.0312C72.2188 37.1875 71 35.3594 71 33.25C71 30.3906 73.3438 28 76.25 28H77.75C80.6094 28 83 30.3906 83 33.25Z" fill="#B90D22"/>
</svg>
