<svg width="20" height="20" viewBox="0 0 20 20" fill="none" xmlns="http://www.w3.org/2000/svg">
<path d="M10.1623 2.5H9.83703C9.44488 2.5 9.0688 2.65804 8.79151 2.93934C8.51422 3.22064 8.35844 3.60218 8.35844 4V4.135C8.35817 4.39804 8.28972 4.65639 8.15996 4.88413C8.0302 5.11186 7.84369 5.30098 7.61914 5.4325L7.30124 5.62C7.07647 5.75165 6.82149 5.82096 6.56194 5.82096C6.3024 5.82096 6.04742 5.75165 5.82265 5.62L5.71175 5.56C5.37246 5.36145 4.96938 5.30758 4.59098 5.41023C4.21258 5.51288 3.8898 5.76365 3.69347 6.1075L3.53083 6.3925C3.33511 6.7367 3.28201 7.14562 3.3832 7.5295C3.48438 7.91337 3.73157 8.24084 4.07052 8.44L4.18141 8.515C4.40488 8.64588 4.5907 8.83382 4.72039 9.06012C4.85009 9.28643 4.91915 9.54323 4.92071 9.805V10.1875C4.92174 10.4518 4.85391 10.7117 4.72409 10.9409C4.59426 11.17 4.40705 11.3603 4.18141 11.4925L4.07052 11.56C3.73157 11.7592 3.48438 12.0866 3.3832 12.4705C3.28201 12.8544 3.33511 13.2633 3.53083 13.6075L3.69347 13.8925C3.8898 14.2363 4.21258 14.4871 4.59098 14.5898C4.96938 14.6924 5.37246 14.6386 5.71175 14.44L5.82265 14.38C6.04742 14.2483 6.3024 14.179 6.56194 14.179C6.82149 14.179 7.07647 14.2483 7.30124 14.38L7.61914 14.5675C7.84369 14.699 8.0302 14.8881 8.15996 15.1159C8.28972 15.3436 8.35817 15.602 8.35844 15.865V16C8.35844 16.3978 8.51422 16.7794 8.79151 17.0607C9.0688 17.342 9.44488 17.5 9.83703 17.5H10.1623C10.5545 17.5 10.9306 17.342 11.2078 17.0607C11.4851 16.7794 11.6409 16.3978 11.6409 16V15.865C11.6412 15.602 11.7096 15.3436 11.8394 15.1159C11.9691 14.8881 12.1557 14.699 12.3802 14.5675L12.6981 14.38C12.9229 14.2483 13.1779 14.179 13.4374 14.179C13.697 14.179 13.9519 14.2483 14.1767 14.38L14.2876 14.44C14.6269 14.6386 15.03 14.6924 15.4084 14.5898C15.7868 14.4871 16.1096 14.2363 16.3059 13.8925L16.4685 13.6C16.6642 13.2558 16.7173 12.8469 16.6162 12.463C16.515 12.0791 16.2678 11.7517 15.9288 11.5525L15.8179 11.4925C15.5923 11.3603 15.4051 11.17 15.2753 10.9409C15.1454 10.7117 15.0776 10.4518 15.0786 10.1875V9.8125C15.0776 9.54818 15.1454 9.28829 15.2753 9.05912C15.4051 8.82995 15.5923 8.63966 15.8179 8.5075L15.9288 8.44C16.2678 8.24084 16.515 7.91337 16.6162 7.5295C16.7173 7.14562 16.6642 6.7367 16.4685 6.3925L16.3059 6.1075C16.1096 5.76365 15.7868 5.51288 15.4084 5.41023C15.03 5.30758 14.6269 5.36145 14.2876 5.56L14.1767 5.62C13.9519 5.75165 13.697 5.82096 13.4374 5.82096C13.1779 5.82096 12.9229 5.75165 12.6981 5.62L12.3802 5.4325C12.1557 5.30098 11.9691 5.11186 11.8394 4.88413C11.7096 4.65639 11.6412 4.39804 11.6409 4.135V4C11.6409 3.60218 11.4851 3.22064 11.2078 2.93934C10.9306 2.65804 10.5545 2.5 10.1623 2.5Z" stroke="#434343" stroke-width="1.5" stroke-linecap="round" stroke-linejoin="round"/>
<path d="M9.99967 11.6666C10.9201 11.6666 11.6663 10.9205 11.6663 9.99998C11.6663 9.07951 10.9201 8.33331 9.99967 8.33331C9.0792 8.33331 8.33301 9.07951 8.33301 9.99998C8.33301 10.9205 9.0792 11.6666 9.99967 11.6666Z" stroke="#434343" stroke-width="1.5" stroke-linecap="round" stroke-linejoin="round"/>
</svg>
