<svg width="16" height="16" viewBox="0 0 16 16" fill="none" xmlns="http://www.w3.org/2000/svg">
<path fill-rule="evenodd" clip-rule="evenodd" d="M13.3621 5.84008L9.96896 5.54563L8.64395 2.4259C8.40559 1.85803 7.59236 1.85803 7.35399 2.4259L6.02898 5.55264L2.64285 5.84008C2.02591 5.88915 1.77353 6.66032 2.24324 7.06694L4.81614 9.29632L4.04497 12.6053C3.90476 13.2083 4.55675 13.685 5.08956 13.3625L7.99897 11.6098L10.9084 13.3695C11.4412 13.692 12.0932 13.2153 11.953 12.6124L11.1818 9.29632L13.7547 7.06694C14.2244 6.66032 13.979 5.88915 13.3621 5.84008V5.84008ZM7.99897 10.2988L5.36297 11.8903L6.06404 8.8897L3.73651 6.87064L6.80716 6.60424L7.99897 3.77895L9.19779 6.61125L12.2685 6.87765L9.94092 8.89672L10.642 11.8973L7.99897 10.2988Z" fill="#5F6368"/>
</svg>
