<svg width="48" height="48" viewBox="0 0 48 48" fill="none" xmlns="http://www.w3.org/2000/svg">
<g filter="url(#filter0_b_2626_53)">
<rect width="48" height="48" rx="14" fill="white" fill-opacity="0.26"/>
</g>
<path d="M36 22.859C36 16.3048 30.7595 11 24.3066 11C22.5174 11 20.7673 11.357 19.1345 12.0709C17.5409 12.755 16.1232 13.7268 14.9011 14.9662C13.6789 16.1957 12.7208 17.6434 12.0462 19.2497C11.352 20.9156 11 22.6805 11 24.505C11 26.3294 11.352 28.0944 12.0462 29.7602C12.7208 31.3665 13.6789 32.8042 14.9011 34.0437C16.1232 35.2831 17.5506 36.2548 19.1345 36.939C20.7673 37.643 22.5174 38 24.3164 38C26.0469 38 27.6993 37.6629 29.2148 37.058L28.2077 34.48C27.0051 34.9658 25.695 35.2335 24.3164 35.2335C21.4909 35.2335 18.8315 34.1131 16.8369 32.0903C14.8424 30.0676 13.7376 27.3705 13.7376 24.505C13.7376 21.6393 14.8424 18.9424 16.8369 16.9196C18.8413 14.8968 21.4909 13.7763 24.3164 13.7763C29.2636 13.7763 33.2722 17.8417 33.2722 22.859C33.2722 24.7033 32.7247 26.4286 31.7861 27.8663L29.4591 22.0558C29.1169 21.2031 28.7063 19.924 27.1615 19.924C25.6167 19.924 25.2061 21.213 24.8737 22.0558L22.7325 27.4201L19.858 20.0628H16.8369L20.4153 29.0066C20.7771 29.9089 21.1779 31.1385 22.7325 31.1385C24.287 31.1385 24.6781 29.9089 25.0399 29.0066L27.1615 23.6919L29.2929 29.0066C29.7231 30.1072 30.1826 31.1385 31.6003 31.1385C32.6074 31.1385 33.2428 30.484 33.5949 30.0576C35.1005 28.0646 36 25.5659 36 22.859Z" fill="white" fill-opacity="0.96"/>
<defs>
<filter id="filter0_b_2626_53" x="-4" y="-4" width="56" height="56" filterUnits="userSpaceOnUse" color-interpolation-filters="sRGB">
<feFlood flood-opacity="0" result="BackgroundImageFix"/>
<feGaussianBlur in="BackgroundImageFix" stdDeviation="2"/>
<feComposite in2="SourceAlpha" operator="in" result="effect1_backgroundBlur_2626_53"/>
<feBlend mode="normal" in="SourceGraphic" in2="effect1_backgroundBlur_2626_53" result="shape"/>
</filter>
</defs>
</svg>
