<svg width="15" height="17" viewBox="0 0 15 17" fill="none" xmlns="http://www.w3.org/2000/svg">
<path d="M3.14578 1.10963L0.294584 6.14938C-0.542339 7.62889 0.50351 9.47792 2.17859 9.47792L2.47108 9.47792C2.73531 9.47792 2.97987 9.33392 3.11137 9.10077L3.64966 8.14907C3.8082 7.86967 3.61033 7.52114 3.29449 7.52114L2.56694 7.52114C2.20317 7.52114 1.97581 7.11967 2.1577 6.79878L4.62791 2.4337C4.8098 2.11233 5.26452 2.11233 5.4452 2.4337L7.91541 6.79878C8.09729 7.11967 7.86992 7.52114 7.50615 7.52114L7.119 7.52114C5.44394 7.52114 4.39687 9.37016 5.235 10.8506L8.08621 15.8904C8.92317 17.3699 11.0173 17.3699 11.8542 15.8904L14.7054 10.8506C15.5423 9.37159 14.4965 7.52114 12.8214 7.52114L12.5289 7.52114C12.2647 7.52114 12.0213 7.66512 11.8886 7.89828L11.3491 8.84997C11.1906 9.12938 11.3884 9.47792 11.7043 9.47792L12.4319 9.47792C12.7956 9.47792 13.023 9.8789 12.8411 10.2003L10.3709 14.5654C10.189 14.8862 9.73428 14.8862 9.55239 14.5654L7.08213 10.2003C6.90024 9.8789 7.12761 9.47792 7.49139 9.47792L7.87853 9.47792C9.5536 9.47792 10.6007 7.62889 9.76254 6.14938L6.91132 1.10963C6.07684 -0.369877 3.9827 -0.369877 3.14578 1.10963Z" fill="#1F272E"/>
</svg>
