<svg width="18" height="18" viewBox="0 0 18 18" fill="none" xmlns="http://www.w3.org/2000/svg">
<g clip-path="url(#clip0_762_6016)">
<path d="M5.61145 0.00444323C4.10634 0.0997568 2.69608 0.772214 1.67455 1.88167C0.653016 2.99113 0.0990293 4.45201 0.128037 5.95985C0.157046 7.46769 0.76681 8.90617 1.83026 9.97552C2.8937 11.0449 4.32879 11.6626 5.83645 11.6999H10.5839C11.2004 11.6999 11.6999 11.2049 11.6999 10.5839V5.85444C11.7012 5.06554 11.5428 4.28454 11.2343 3.55848C10.9257 2.83243 10.4733 2.17635 9.90447 1.62976C9.3356 1.08318 8.66197 0.657396 7.92417 0.378069C7.18638 0.0987408 6.39967 -0.0283529 5.61145 0.00444323Z" fill="url(#paint0_linear_762_6016)"/>
<path d="M12.3883 17.9956C13.8934 17.9002 15.3037 17.2278 16.3252 16.1183C17.3467 15.0089 17.9007 13.548 17.8717 12.0401C17.8427 10.5323 17.233 9.09382 16.1695 8.02447C15.1061 6.95512 13.671 6.3374 12.1633 6.30005H7.41581C7.11983 6.30005 6.83597 6.41763 6.62668 6.62692C6.41739 6.83621 6.29981 7.12007 6.29981 7.41605V12.1455C6.29852 12.9345 6.45694 13.7155 6.76551 14.4415C7.07408 15.1676 7.52642 15.8236 8.09529 16.3702C8.66416 16.9168 9.33779 17.3426 10.0756 17.6219C10.8134 17.9013 11.6001 18.0283 12.3883 17.9956Z" fill="#0073E6"/>
<path d="M11.6998 6.30003V10.584C11.6998 10.88 11.5822 11.1639 11.3729 11.3732C11.1636 11.5825 10.8798 11.7 10.5838 11.7H6.29981V7.41603C6.29922 7.13211 6.40686 6.85864 6.60082 6.6513C6.79478 6.44397 7.06048 6.31835 7.34381 6.30003L7.41581 6.29553H11.6998V6.30003Z" fill="url(#paint1_linear_762_6016)"/>
</g>
<defs>
<linearGradient id="paint0_linear_762_6016" x1="5.84995" y1="0.769443" x2="5.84995" y2="6.86244" gradientUnits="userSpaceOnUse">
<stop stop-color="#11EFE3"/>
<stop offset="0.33" stop-color="#15E8E2"/>
<stop offset="0.74" stop-color="#1FD3E0"/>
<stop offset="1" stop-color="#21CFE0"/>
</linearGradient>
<linearGradient id="paint1_linear_762_6016" x1="8.99981" y1="7.07403" x2="8.99981" y2="12.258" gradientUnits="userSpaceOnUse">
<stop stop-color="#00299C"/>
<stop offset="1" stop-color="#0073E6"/>
</linearGradient>
<clipPath id="clip0_762_6016">
<rect width="18" height="18" fill="white"/>
</clipPath>
</defs>
</svg>
