<svg width="40" height="40" viewBox="0 0 40 40" fill="none" xmlns="http://www.w3.org/2000/svg">
<rect x="0.5" y="0.5" width="39" height="39" rx="7.5" stroke="#E5E7EB"/>
<rect x="4" y="4" width="32" height="32" rx="4" fill="#F3F4F6"/>
<path d="M20 27.5L19.9166 27.3749C19.3378 26.5066 19.0483 26.0725 18.6659 25.7582C18.3274 25.4799 17.9373 25.2712 17.518 25.1438C17.0444 25 16.5226 25 15.479 25H14.3333C13.3999 25 12.9332 25 12.5767 24.8183C12.2631 24.6586 12.0081 24.4036 11.8483 24.09C11.6667 23.7335 11.6667 23.2668 11.6667 22.3333V15.1667C11.6667 14.2332 11.6667 13.7665 11.8483 13.41C12.0081 13.0964 12.2631 12.8414 12.5767 12.6817C12.9332 12.5 13.3999 12.5 14.3333 12.5H14.6667C16.5335 12.5 17.4669 12.5 18.18 12.8633C18.8072 13.1829 19.3171 13.6928 19.6367 14.32C20 15.0331 20 15.9665 20 17.8333M20 27.5V17.8333M20 27.5L20.0834 27.3749C20.6622 26.5066 20.9517 26.0725 21.3341 25.7582C21.6726 25.4799 22.0627 25.2712 22.482 25.1438C22.9556 25 23.4774 25 24.521 25H25.6667C26.6001 25 27.0668 25 27.4233 24.8183C27.7369 24.6586 27.9919 24.4036 28.1517 24.09C28.3333 23.7335 28.3333 23.2668 28.3333 22.3333V15.1667C28.3333 14.2332 28.3333 13.7665 28.1517 13.41C27.9919 13.0964 27.7369 12.8414 27.4233 12.6817C27.0668 12.5 26.6001 12.5 25.6667 12.5H25.3333C23.4665 12.5 22.5331 12.5 21.82 12.8633C21.1928 13.1829 20.6829 13.6928 20.3633 14.32C20 15.0331 20 15.9665 20 17.8333" stroke="#6B7280" stroke-width="2" stroke-linecap="round" stroke-linejoin="round"/>
</svg>
