<svg width="68" height="68" viewBox="0 0 68 68" fill="none" xmlns="http://www.w3.org/2000/svg">
<path fill-rule="evenodd" clip-rule="evenodd" d="M51.7968 0C61.625 0 68 6.375 68 16.2032V51.7968C68 61.625 61.625 68 51.7968 68H16.2032C6.375 68 0 61.625 0 51.7968V16.2032C0 6.375 6.375 0 16.2032 0H51.7968Z" fill="white"/>
<g clip-path="url(#clip0_918_14172)">
<path fill-rule="evenodd" clip-rule="evenodd" d="M53.5164 56.9028C55.1808 56.9028 56.5443 55.5621 56.5443 53.9206V23.501C56.5443 21.8594 55.1808 20.5187 53.5164 20.5187H23.9631L35.8236 56.9028H53.5164Z" fill="#DBDBDB"/>
<path fill-rule="evenodd" clip-rule="evenodd" d="M53.5164 21.8868C53.9586 21.8868 54.3782 22.0601 54.693 22.3702C55.003 22.6758 55.1763 23.0771 55.1763 23.5012V53.9208C55.1763 54.3448 55.0077 54.7461 54.693 55.0516C54.3784 55.3617 53.9588 55.5349 53.5164 55.5349H36.8178L25.8464 21.8868H53.5164ZM53.5164 20.5189H23.9631L35.8236 56.9029H53.5164C55.1808 56.9029 56.5443 55.5622 56.5443 53.9208V23.5012C56.5443 21.8595 55.1808 20.5189 53.5164 20.5189Z" fill="#DCDCDC"/>
<path fill-rule="evenodd" clip-rule="evenodd" d="M33.0239 48.3074L35.8238 56.9028L43.6076 48.3074H33.0239Z" fill="#4352B8"/>
<path fill-rule="evenodd" clip-rule="evenodd" d="M53.7171 33.0906V31.3077H45.1215V28.4257H42.3308V31.3077H36.8452V33.0906H47.7618C47.1781 35.1471 45.8877 37.0897 44.6292 38.599C42.3994 35.9587 42.3902 35.1015 42.3902 35.1015H40.0737C40.0737 35.1015 40.1695 36.3875 43.2977 40.0537C42.2807 41.0933 41.5101 41.709 41.5101 41.709L42.2215 43.9343C42.2215 43.9343 43.2977 43.0085 44.6428 41.5813C45.9925 43.045 47.7345 44.8051 49.9871 46.9028L51.4508 45.4391C49.0386 43.2503 47.2693 41.513 45.9697 40.1176C47.7116 38.0565 49.4808 35.4619 49.8548 33.0861H53.7126V33.0906H53.7171Z" fill="#607988"/>
<path fill-rule="evenodd" clip-rule="evenodd" d="M14.059 11.3806C12.3946 11.3806 11.0311 12.744 11.0311 14.413V45.284C11.0311 46.9484 12.3945 48.3119 14.059 48.3119H43.6123L31.7518 11.3806H14.059Z" fill="#4285F4"/>
<path fill-rule="evenodd" clip-rule="evenodd" d="M27.9669 31.0159C27.8529 32.3975 26.6718 34.4449 23.8127 34.4449C21.3367 34.4449 19.3302 32.3975 19.3302 29.8759C19.3302 27.3542 21.3367 25.3068 23.8127 25.3068C25.2218 25.3068 26.1612 25.9178 26.6991 26.4148L28.5778 24.609C27.3421 23.4691 25.7324 22.7577 23.8125 22.7577C19.8865 22.7577 16.699 25.9451 16.699 29.8713C16.699 33.7973 19.8865 36.9848 23.8125 36.9848C27.9256 36.9848 30.6433 34.0984 30.6433 30.0264C30.6433 29.4427 30.5704 29.0141 30.4747 28.5763H23.817V31.0114L27.9666 31.0159H27.9669Z" fill="#EEEEEE"/>
<mask id="mask0_918_14172" style="mask-type:luminance" maskUnits="userSpaceOnUse" x="11" y="11" width="46" height="46">
<path fill-rule="evenodd" clip-rule="evenodd" d="M11.0107 11.3602H56.5649V56.9233H11.0107V11.3602Z" fill="url(#paint0_radial_918_14172)"/>
</mask>
<g mask="url(#mask0_918_14172)">
<path fill-rule="evenodd" clip-rule="evenodd" d="M53.5166 20.5187H34.6883L31.7518 11.3806H14.059C12.3946 11.3806 11.0312 12.744 11.0312 14.413V45.284C11.0312 46.9484 12.3946 48.3119 14.059 48.3119H33.0239L35.8238 56.9028H53.5166C55.181 56.9028 56.5443 55.5622 56.5443 53.9206V23.501C56.5443 21.8595 55.181 20.5187 53.5166 20.5187Z" fill="url(#paint1_radial_918_14172)"/>
</g>
</g>
<defs>
<radialGradient id="paint0_radial_918_14172" cx="0" cy="0" r="1" gradientUnits="userSpaceOnUse" gradientTransform="translate(-78.0355 -87.1458) scale(405.693 405.693)">
<stop stop-color="white" stop-opacity="0.102"/>
<stop offset="1" stop-color="white"/>
</radialGradient>
<radialGradient id="paint1_radial_918_14172" cx="0" cy="0" r="1" gradientUnits="userSpaceOnUse" gradientTransform="translate(14.217 12.291) scale(22.7611)">
<stop stop-color="white"/>
<stop offset="1" stop-color="white"/>
</radialGradient>
<clipPath id="clip0_918_14172">
<rect width="45.5132" height="45.5222" fill="white" transform="translate(11.0311 11.3806)"/>
</clipPath>
</defs>
</svg>
