<svg width="46" height="43" viewBox="0 0 46 43" fill="none" xmlns="http://www.w3.org/2000/svg">
<g clip-path="url(#clip0_238_20254)">
<path d="M109.538 0.0473279H121.656L115.558 43.0264H103.44L109.538 0.0473279ZM94.2596 0.0473279L86.0822 24.8061L82.5147 0.0473279H74.0389L63.3308 24.7324L61.9937 0.0491707H50.2469L54.3366 43.0283H64.0768L76.12 15.8461L80.357 43.0283H89.948L105.784 0.0473279H94.2596ZM196.003 25.0273H167.23C167.379 30.6111 170.762 34.2839 175.743 34.2839C179.499 34.2839 182.471 32.2992 184.776 28.5158L194.489 32.8797C191.15 39.3794 184.116 43.6143 175.446 43.6143C163.625 43.6143 155.781 35.7527 155.781 23.1162C155.781 9.23028 164.999 -0.614258 178.011 -0.614258C189.461 -0.614258 196.672 7.02623 196.672 18.9292C196.672 20.9122 196.449 22.8951 196.003 25.0273ZM185.224 16.7971C185.224 11.8029 182.397 8.64241 177.863 8.64241C173.179 8.64241 169.313 11.9485 168.27 16.7971H185.224ZM12.3678 12.9989L0 27.2848H22.0875L24.5677 20.5491H15.1054L20.8865 13.9406L20.9051 13.7656L17.1456 7.369H34.0636L20.9499 43.0283H29.9236L45.7601 0.045485H4.84865L12.3696 12.9971L12.3678 12.9989ZM141.357 8.64241C145.631 8.64241 149.376 10.9147 152.649 14.8086L154.366 2.69183C151.321 0.653628 147.194 -0.614258 141.73 -0.614258C130.876 -0.614258 124.778 5.66804 124.778 13.6384C124.778 19.167 127.902 22.5468 133.032 24.7324L135.484 25.8344C140.057 27.7639 141.284 28.7185 141.284 30.7567C141.284 32.8686 139.221 34.2102 136.081 34.2102C130.893 34.2286 126.693 31.6026 123.534 27.1207L121.781 39.466C125.382 42.1769 129.996 43.6143 136.079 43.6143C146.396 43.6143 152.732 37.7356 152.732 29.581C152.732 24.034 150.243 20.4717 143.96 17.6798L141.284 16.4303C137.565 14.7957 136.303 13.8964 136.303 12.0959C136.303 10.1499 138.032 8.64241 141.357 8.64241Z" fill="#1F272E"/>
</g>
<defs>
<clipPath id="clip0_238_20254">
<rect width="46" height="43" fill="white"/>
</clipPath>
</defs>
</svg>
