<svg width="21" height="22" viewBox="0 0 21 22" fill="none" xmlns="http://www.w3.org/2000/svg">
<path d="M21 9.66286C21 4.32244 16.598 0 11.1776 0C9.67463 0 8.20455 0.290855 6.83299 0.872566C5.49433 1.43004 4.30348 2.22181 3.27689 3.23173C2.25029 4.23356 1.44545 5.41315 0.87877 6.72198C0.295667 8.07935 0 9.51745 0 11.004C0 12.4906 0.295667 13.9287 0.87877 15.286C1.44545 16.5949 2.25029 17.7664 3.27689 18.7763C4.30348 19.7862 5.50255 20.578 6.83299 21.1355C8.20455 21.7091 9.67463 22 11.1858 22C12.6394 22 14.0274 21.7253 15.3004 21.2324L14.4545 19.1318C13.4443 19.5277 12.3438 19.7458 11.1858 19.7458C8.81232 19.7458 6.57844 18.8329 4.90302 17.1847C3.22762 15.5365 2.29956 13.3389 2.29956 11.004C2.29956 8.66908 3.22762 6.47156 4.90302 4.82335C6.58666 3.17518 8.81232 2.26221 11.1858 2.26221C15.3414 2.26221 18.7087 5.57473 18.7087 9.66286C18.7087 11.1656 18.2487 12.5714 17.4603 13.7429L15.5057 9.00845C15.2182 8.31365 14.8733 7.27138 13.5757 7.27138C12.278 7.27138 11.9331 8.32168 11.6539 9.00845L9.85528 13.3793L7.44076 7.38448H4.90302L7.90887 14.672C8.21278 15.4072 8.54947 16.4091 9.85528 16.4091C11.1611 16.4091 11.4896 15.4072 11.7935 14.672L13.5757 10.3415L15.3661 14.672C15.7274 15.5688 16.1134 16.4091 17.3043 16.4091C18.1502 16.4091 18.684 15.8758 18.9797 15.5284C20.2444 13.9045 21 11.8685 21 9.66286Z" fill="#333333"/>
</svg>
