<svg width="48" height="48" viewBox="0 0 48 48" fill="none" xmlns="http://www.w3.org/2000/svg">
<g filter="url(#filter0_b_2626_66)">
<rect width="48" height="48" rx="14" fill="white" fill-opacity="0.26"/>
</g>
<g clip-path="url(#clip0_2626_66)">
<path d="M69.1505 13.0253H75.4729L72.2912 36.0141H65.9689L69.1505 13.0253ZM61.1789 13.0253L56.9124 26.2684L55.0511 13.0253H50.629L45.0422 26.229L44.3445 13.0263H38.2158L40.3495 36.0151H45.4313L51.7148 21.4758L53.9254 36.0151H58.9294L67.1919 13.0253H61.1789ZM114.262 26.3867H99.2504C99.3282 29.3734 101.093 31.3379 103.692 31.3379C105.652 31.3379 107.202 30.2763 108.405 28.2526L113.472 30.5868C111.731 34.0634 108.061 36.3286 103.537 36.3286C97.3696 36.3286 93.2773 32.1235 93.2773 25.3645C93.2773 17.9371 98.0867 12.6714 104.875 12.6714C110.849 12.6714 114.612 16.7582 114.612 23.1249C114.612 24.1856 114.495 25.2462 114.262 26.3867ZM108.639 21.9845C108.639 19.3132 107.164 17.6227 104.798 17.6227C102.354 17.6227 100.337 19.3911 99.7933 21.9845H108.639ZM18.4528 19.9529L12 27.5942H23.5239L24.8179 23.9914H19.8811L22.8973 20.4566L22.907 20.363L20.9455 16.9416H29.7723L22.9304 36.0151H27.6123L35.8748 13.0243H14.5297L18.4537 19.9519L18.4528 19.9529ZM85.7513 17.6227C87.9814 17.6227 89.9351 18.8381 91.6427 20.9209L92.5388 14.4398C90.9499 13.3496 88.7967 12.6714 85.9459 12.6714C80.2832 12.6714 77.1016 16.0317 77.1016 20.295C77.1016 23.2521 78.7313 25.0599 81.408 26.229L82.6874 26.8184C85.0732 27.8505 85.7134 28.3611 85.7134 29.4513C85.7134 30.5809 84.6373 31.2985 82.9988 31.2985C80.292 31.3083 78.1009 29.9037 76.4526 27.5064L75.538 34.1097C77.4169 35.5597 79.824 36.3286 82.9978 36.3286C88.3803 36.3286 91.6865 33.1842 91.6865 28.8224C91.6865 25.8554 90.3876 23.95 87.1096 22.4566L85.7134 21.7883C83.7733 20.914 83.1146 20.433 83.1146 19.4699C83.1146 18.429 84.0165 17.6227 85.7513 17.6227Z" fill="white"/>
</g>
<defs>
<filter id="filter0_b_2626_66" x="-4" y="-4" width="56" height="56" filterUnits="userSpaceOnUse" color-interpolation-filters="sRGB">
<feFlood flood-opacity="0" result="BackgroundImageFix"/>
<feGaussianBlur in="BackgroundImageFix" stdDeviation="2"/>
<feComposite in2="SourceAlpha" operator="in" result="effect1_backgroundBlur_2626_66"/>
<feBlend mode="normal" in="SourceGraphic" in2="effect1_backgroundBlur_2626_66" result="shape"/>
</filter>
<clipPath id="clip0_2626_66">
<rect width="24" height="23" fill="white" transform="translate(12 13)"/>
</clipPath>
</defs>
</svg>
