<svg width="20" height="20" viewBox="0 0 20 20" fill="none" xmlns="http://www.w3.org/2000/svg">
<path d="M2.5 16.1334C2.5 13.7429 3.84325 11.8047 5.5 11.8047H8.5C10.1567 11.8047 11.5 13.7429 11.5 16.1334" stroke="#6B7280" stroke-width="1.5" stroke-linecap="round" stroke-linejoin="round"/>
<path d="M8.85616 4.63604C9.88129 5.66117 9.88129 7.32322 8.85616 8.34835C7.83103 9.37348 6.16898 9.37348 5.14385 8.34835C4.11872 7.32322 4.11872 5.66117 5.14385 4.63604C6.16898 3.61091 7.83103 3.61091 8.85616 4.63604" stroke="#6B7280" stroke-width="1.5" stroke-linecap="round" stroke-linejoin="round"/>
<path d="M13 11.1094H15.25C16.4927 11.1094 17.5 12.4799 17.5 14.1708" stroke="#6B7280" stroke-width="1.5" stroke-linecap="round" stroke-linejoin="round"/>
<path d="M15.4508 5.16636C16.1831 5.8986 16.1831 7.08578 15.4508 7.81801C14.7186 8.55024 13.5314 8.55024 12.7992 7.81801C12.0669 7.08578 12.0669 5.89859 12.7992 5.16636C13.5314 4.43413 14.7186 4.43413 15.4508 5.16636" stroke="#6B7280" stroke-width="1.5" stroke-linecap="round" stroke-linejoin="round"/>
</svg>
