<svg width="14" height="14" viewBox="0 0 14 14" fill="none" xmlns="http://www.w3.org/2000/svg">
<g clip-path="url(#clip0_845_1146)">
<path d="M7.95336 5.57824C7.59242 5.57824 7.31273 5.85793 7.31273 6.20324C7.31273 6.54856 7.59242 6.82824 7.95336 6.82824C8.28304 6.82824 8.56273 6.54856 8.56273 6.20324C8.56273 5.85793 8.28304 5.57824 7.95336 5.57824ZM3.57836 5.57824C3.21742 5.57824 2.93773 5.85793 2.93773 6.20324C2.93773 6.54856 3.21742 6.82824 3.57836 6.82824C3.90804 6.82824 4.18773 6.54856 4.18773 6.20324C4.18773 5.85793 3.90804 5.57824 3.57836 5.57824Z" fill="black" fill-opacity="0.85"/>
<path d="M12.9685 4.38952C12.2456 3.39443 11.2032 2.67744 10.0154 2.35827V2.35984C9.74823 2.06296 9.44667 1.78952 9.10917 1.54577C6.55135 -0.313602 2.96073 0.253586 1.09354 2.8114C-0.411146 4.88952 -0.347083 7.68484 1.18729 9.67077L1.19979 11.7426C1.19979 11.7926 1.2076 11.8426 1.22323 11.8895C1.24288 11.9521 1.27469 12.0103 1.31683 12.0606C1.35896 12.1109 1.41061 12.1524 1.4688 12.1827C1.527 12.213 1.5906 12.2316 1.65597 12.2373C1.72135 12.2431 1.78721 12.2358 1.84979 12.2161L3.82792 11.5926C4.35135 11.7786 4.89198 11.8848 5.42948 11.9145L5.42167 11.9208C6.81386 12.9348 8.63885 13.2395 10.3123 12.6864L12.2982 13.3333C12.3482 13.3489 12.3998 13.3583 12.4529 13.3583C12.7295 13.3583 12.9529 13.1348 12.9529 12.8583V10.7645C14.3295 8.89577 14.3654 6.31296 12.9685 4.38952ZM4.04667 10.4833L3.85917 10.4051L2.31229 10.8895L2.29667 9.26452L2.17167 9.1239C0.849791 7.5114 0.762292 5.18796 1.99979 3.48327C3.50604 1.41765 6.39354 0.961398 8.45292 2.45202C10.5185 3.95359 10.9764 6.8364 9.48417 8.88952C8.2326 10.6067 5.99198 11.2411 4.04667 10.4833ZM11.9373 10.2176L11.8123 10.3739L11.8279 11.9989L10.2967 11.4833L10.1092 11.5614C9.23417 11.8864 8.30135 11.913 7.43729 11.6708L7.43417 11.6692C8.62172 11.305 9.65906 10.5654 10.3904 9.5614C11.5842 7.91609 11.7779 5.8489 11.0842 4.0864L11.0935 4.09265C11.4529 4.35046 11.7826 4.67234 12.0623 5.0614C13.1967 6.61765 13.1326 8.7364 11.9373 10.2176Z" fill="black" fill-opacity="0.85"/>
<path d="M5.76586 5.57824C5.40492 5.57824 5.12523 5.85793 5.12523 6.20324C5.12523 6.54856 5.40492 6.82824 5.76586 6.82824C6.09554 6.82824 6.37523 6.54856 6.37523 6.20324C6.37523 5.85793 6.09554 5.57824 5.76586 5.57824Z" fill="black" fill-opacity="0.85"/>
</g>
<defs>
<clipPath id="clip0_845_1146">
<rect width="14" height="14" fill="white"/>
</clipPath>
</defs>
</svg>
